solid OpenSCAD_Model
  facet normal 0.989176 0.146737 0
    outer loop
      vertex 59.7111 5.88103 8
      vertex 58.8471 11.7054 0
      vertex 58.8471 11.7054 8
    endloop
  endfacet
  facet normal 0.989176 0.146737 0
    outer loop
      vertex 58.8471 11.7054 0
      vertex 59.7111 5.88103 8
      vertex 59.7111 5.88103 0
    endloop
  endfacet
  facet normal 0.998796 0.0490649 0
    outer loop
      vertex 60 0 8
      vertex 59.7111 5.88103 0
      vertex 59.7111 5.88103 8
    endloop
  endfacet
  facet normal 0.998796 0.0490649 0
    outer loop
      vertex 59.7111 5.88103 0
      vertex 60 0 8
      vertex 60 0 0
    endloop
  endfacet
  facet normal 0.970032 0.242979 0
    outer loop
      vertex 58.8471 11.7054 8
      vertex 57.4164 17.4171 0
      vertex 57.4164 17.4171 8
    endloop
  endfacet
  facet normal 0.970032 0.242979 0
    outer loop
      vertex 57.4164 17.4171 0
      vertex 58.8471 11.7054 8
      vertex 58.8471 11.7054 0
    endloop
  endfacet
  facet normal 0.595703 -0.803204 0
    outer loop
      vertex 33.3342 -49.8882 0
      vertex 38.0636 -46.3806 8
      vertex 33.3342 -49.8882 8
    endloop
  endfacet
  facet normal 0.595703 -0.803204 0
    outer loop
      vertex 38.0636 -46.3806 8
      vertex 33.3342 -49.8882 0
      vertex 38.0636 -46.3806 0
    endloop
  endfacet
  facet normal 0.427556 -0.903989 0
    outer loop
      vertex 22.961 -55.4328 0
      vertex 28.2838 -52.9153 8
      vertex 22.961 -55.4328 8
    endloop
  endfacet
  facet normal 0.427556 -0.903989 0
    outer loop
      vertex 28.2838 -52.9153 8
      vertex 22.961 -55.4328 0
      vertex 28.2838 -52.9153 0
    endloop
  endfacet
  facet normal -0.671558 -0.740952 0
    outer loop
      vertex -42.4264 -42.4264 0
      vertex -38.0636 -46.3806 8
      vertex -42.4264 -42.4264 8
    endloop
  endfacet
  facet normal -0.671558 -0.740952 -0
    outer loop
      vertex -38.0636 -46.3806 8
      vertex -42.4264 -42.4264 0
      vertex -38.0636 -46.3806 0
    endloop
  endfacet
  facet normal 0.514104 0.857728 -0
    outer loop
      vertex 33.3342 49.8882 0
      vertex 28.2838 52.9153 8
      vertex 33.3342 49.8882 8
    endloop
  endfacet
  facet normal 0.514104 0.857728 0
    outer loop
      vertex 28.2838 52.9153 8
      vertex 33.3342 49.8882 0
      vertex 28.2838 52.9153 0
    endloop
  endfacet
  facet normal -0.146737 -0.989176 0
    outer loop
      vertex -11.7054 -58.8471 0
      vertex -5.88103 -59.7111 8
      vertex -11.7054 -58.8471 8
    endloop
  endfacet
  facet normal -0.146737 -0.989176 -0
    outer loop
      vertex -5.88103 -59.7111 8
      vertex -11.7054 -58.8471 0
      vertex -5.88103 -59.7111 0
    endloop
  endfacet
  facet normal -0.242979 0.970032 0
    outer loop
      vertex -11.7054 58.8471 0
      vertex -17.4171 57.4164 8
      vertex -11.7054 58.8471 8
    endloop
  endfacet
  facet normal -0.242979 0.970032 0
    outer loop
      vertex -17.4171 57.4164 8
      vertex -11.7054 58.8471 0
      vertex -17.4171 57.4164 0
    endloop
  endfacet
  facet normal 0.740952 0.671558 0
    outer loop
      vertex 46.3806 38.0636 8
      vertex 42.4264 42.4264 0
      vertex 42.4264 42.4264 8
    endloop
  endfacet
  facet normal 0.740952 0.671558 0
    outer loop
      vertex 42.4264 42.4264 0
      vertex 46.3806 38.0636 8
      vertex 46.3806 38.0636 0
    endloop
  endfacet
  facet normal -0.970032 -0.242979 0
    outer loop
      vertex -57.4164 -17.4171 0
      vertex -58.8471 -11.7054 8
      vertex -58.8471 -11.7054 0
    endloop
  endfacet
  facet normal -0.970032 -0.242979 0
    outer loop
      vertex -58.8471 -11.7054 8
      vertex -57.4164 -17.4171 0
      vertex -57.4164 -17.4171 8
    endloop
  endfacet
  facet normal 0.857728 0.514104 0
    outer loop
      vertex 52.9153 28.2838 8
      vertex 49.8882 33.3342 0
      vertex 49.8882 33.3342 8
    endloop
  endfacet
  facet normal 0.857728 0.514104 0
    outer loop
      vertex 49.8882 33.3342 0
      vertex 52.9153 28.2838 8
      vertex 52.9153 28.2838 0
    endloop
  endfacet
  facet normal 0.671558 0.740952 -0
    outer loop
      vertex 42.4264 42.4264 0
      vertex 38.0636 46.3806 8
      vertex 42.4264 42.4264 8
    endloop
  endfacet
  facet normal 0.671558 0.740952 0
    outer loop
      vertex 38.0636 46.3806 8
      vertex 42.4264 42.4264 0
      vertex 38.0636 46.3806 0
    endloop
  endfacet
  facet normal -0.941546 -0.336884 0
    outer loop
      vertex -55.4328 -22.961 0
      vertex -57.4164 -17.4171 8
      vertex -57.4164 -17.4171 0
    endloop
  endfacet
  facet normal -0.941546 -0.336884 0
    outer loop
      vertex -57.4164 -17.4171 8
      vertex -55.4328 -22.961 0
      vertex -55.4328 -22.961 8
    endloop
  endfacet
  facet normal 0.336884 -0.941546 0
    outer loop
      vertex 17.4171 -57.4164 0
      vertex 22.961 -55.4328 8
      vertex 17.4171 -57.4164 8
    endloop
  endfacet
  facet normal 0.336884 -0.941546 0
    outer loop
      vertex 22.961 -55.4328 8
      vertex 17.4171 -57.4164 0
      vertex 22.961 -55.4328 0
    endloop
  endfacet
  facet normal 0.941546 0.336884 0
    outer loop
      vertex 57.4164 17.4171 8
      vertex 55.4328 22.961 0
      vertex 55.4328 22.961 8
    endloop
  endfacet
  facet normal 0.941546 0.336884 0
    outer loop
      vertex 55.4328 22.961 0
      vertex 57.4164 17.4171 8
      vertex 57.4164 17.4171 0
    endloop
  endfacet
  facet normal -0.998796 -0.0490649 0
    outer loop
      vertex -59.7111 -5.88103 0
      vertex -60 0 8
      vertex -60 0 0
    endloop
  endfacet
  facet normal -0.998796 -0.0490649 0
    outer loop
      vertex -60 0 8
      vertex -59.7111 -5.88103 0
      vertex -59.7111 -5.88103 8
    endloop
  endfacet
  facet normal -0.0490649 0.998796 0
    outer loop
      vertex 0 60 0
      vertex -5.88103 59.7111 8
      vertex 0 60 8
    endloop
  endfacet
  facet normal -0.0490649 0.998796 0
    outer loop
      vertex -5.88103 59.7111 8
      vertex 0 60 0
      vertex -5.88103 59.7111 0
    endloop
  endfacet
  facet normal 0.903989 -0.427556 0
    outer loop
      vertex 52.9153 -28.2838 8
      vertex 55.4328 -22.961 0
      vertex 55.4328 -22.961 8
    endloop
  endfacet
  facet normal 0.903989 -0.427556 0
    outer loop
      vertex 55.4328 -22.961 0
      vertex 52.9153 -28.2838 8
      vertex 52.9153 -28.2838 0
    endloop
  endfacet
  facet normal 0.595703 0.803204 -0
    outer loop
      vertex 38.0636 46.3806 0
      vertex 33.3342 49.8882 8
      vertex 38.0636 46.3806 8
    endloop
  endfacet
  facet normal 0.595703 0.803204 0
    outer loop
      vertex 33.3342 49.8882 8
      vertex 38.0636 46.3806 0
      vertex 33.3342 49.8882 0
    endloop
  endfacet
  facet normal 0.998796 -0.0490649 0
    outer loop
      vertex 59.7111 -5.88103 8
      vertex 60 0 0
      vertex 60 0 8
    endloop
  endfacet
  facet normal 0.998796 -0.0490649 0
    outer loop
      vertex 60 0 0
      vertex 59.7111 -5.88103 8
      vertex 59.7111 -5.88103 0
    endloop
  endfacet
  facet normal -0.336884 -0.941546 0
    outer loop
      vertex -22.961 -55.4328 0
      vertex -17.4171 -57.4164 8
      vertex -22.961 -55.4328 8
    endloop
  endfacet
  facet normal -0.336884 -0.941546 -0
    outer loop
      vertex -17.4171 -57.4164 8
      vertex -22.961 -55.4328 0
      vertex -17.4171 -57.4164 0
    endloop
  endfacet
  facet normal -0.0490649 -0.998796 0
    outer loop
      vertex -5.88103 -59.7111 0
      vertex 0 -60 8
      vertex -5.88103 -59.7111 8
    endloop
  endfacet
  facet normal -0.0490649 -0.998796 -0
    outer loop
      vertex 0 -60 8
      vertex -5.88103 -59.7111 0
      vertex 0 -60 0
    endloop
  endfacet
  facet normal 0.0490649 -0.998796 0
    outer loop
      vertex 0 -60 0
      vertex 5.88103 -59.7111 8
      vertex 0 -60 8
    endloop
  endfacet
  facet normal 0.0490649 -0.998796 0
    outer loop
      vertex 5.88103 -59.7111 8
      vertex 0 -60 0
      vertex 5.88103 -59.7111 0
    endloop
  endfacet
  facet normal 0.803204 0.595703 0
    outer loop
      vertex 49.8882 33.3342 8
      vertex 46.3806 38.0636 0
      vertex 46.3806 38.0636 8
    endloop
  endfacet
  facet normal 0.803204 0.595703 0
    outer loop
      vertex 46.3806 38.0636 0
      vertex 49.8882 33.3342 8
      vertex 49.8882 33.3342 0
    endloop
  endfacet
  facet normal -0.671558 0.740952 0
    outer loop
      vertex -38.0636 46.3806 0
      vertex -42.4264 42.4264 8
      vertex -38.0636 46.3806 8
    endloop
  endfacet
  facet normal -0.671558 0.740952 0
    outer loop
      vertex -42.4264 42.4264 8
      vertex -38.0636 46.3806 0
      vertex -42.4264 42.4264 0
    endloop
  endfacet
  facet normal 0.146737 0.989176 -0
    outer loop
      vertex 11.7054 58.8471 0
      vertex 5.88103 59.7111 8
      vertex 11.7054 58.8471 8
    endloop
  endfacet
  facet normal 0.146737 0.989176 0
    outer loop
      vertex 5.88103 59.7111 8
      vertex 11.7054 58.8471 0
      vertex 5.88103 59.7111 0
    endloop
  endfacet
  facet normal 0.146737 -0.989176 0
    outer loop
      vertex 5.88103 -59.7111 0
      vertex 11.7054 -58.8471 8
      vertex 5.88103 -59.7111 8
    endloop
  endfacet
  facet normal 0.146737 -0.989176 0
    outer loop
      vertex 11.7054 -58.8471 8
      vertex 5.88103 -59.7111 0
      vertex 11.7054 -58.8471 0
    endloop
  endfacet
  facet normal 0.427556 0.903989 -0
    outer loop
      vertex 28.2838 52.9153 0
      vertex 22.961 55.4328 8
      vertex 28.2838 52.9153 8
    endloop
  endfacet
  facet normal 0.427556 0.903989 0
    outer loop
      vertex 22.961 55.4328 8
      vertex 28.2838 52.9153 0
      vertex 22.961 55.4328 0
    endloop
  endfacet
  facet normal 0.941546 -0.336884 0
    outer loop
      vertex 55.4328 -22.961 8
      vertex 57.4164 -17.4171 0
      vertex 57.4164 -17.4171 8
    endloop
  endfacet
  facet normal 0.941546 -0.336884 0
    outer loop
      vertex 57.4164 -17.4171 0
      vertex 55.4328 -22.961 8
      vertex 55.4328 -22.961 0
    endloop
  endfacet
  facet normal 0.740952 -0.671558 0
    outer loop
      vertex 42.4264 -42.4264 8
      vertex 46.3806 -38.0636 0
      vertex 46.3806 -38.0636 8
    endloop
  endfacet
  facet normal 0.740952 -0.671558 0
    outer loop
      vertex 46.3806 -38.0636 0
      vertex 42.4264 -42.4264 8
      vertex 42.4264 -42.4264 0
    endloop
  endfacet
  facet normal -0.740952 0.671558 0
    outer loop
      vertex -46.3806 38.0636 0
      vertex -42.4264 42.4264 8
      vertex -42.4264 42.4264 0
    endloop
  endfacet
  facet normal -0.740952 0.671558 0
    outer loop
      vertex -42.4264 42.4264 8
      vertex -46.3806 38.0636 0
      vertex -46.3806 38.0636 8
    endloop
  endfacet
  facet normal -0.857728 0.514104 0
    outer loop
      vertex -52.9153 28.2838 0
      vertex -49.8882 33.3342 8
      vertex -49.8882 33.3342 0
    endloop
  endfacet
  facet normal -0.857728 0.514104 0
    outer loop
      vertex -49.8882 33.3342 8
      vertex -52.9153 28.2838 0
      vertex -52.9153 28.2838 8
    endloop
  endfacet
  facet normal 0.903989 0.427556 0
    outer loop
      vertex 55.4328 22.961 8
      vertex 52.9153 28.2838 0
      vertex 52.9153 28.2838 8
    endloop
  endfacet
  facet normal 0.903989 0.427556 0
    outer loop
      vertex 52.9153 28.2838 0
      vertex 55.4328 22.961 8
      vertex 55.4328 22.961 0
    endloop
  endfacet
  facet normal -0.514104 0.857728 0
    outer loop
      vertex -28.2838 52.9153 0
      vertex -33.3342 49.8882 8
      vertex -28.2838 52.9153 8
    endloop
  endfacet
  facet normal -0.514104 0.857728 0
    outer loop
      vertex -33.3342 49.8882 8
      vertex -28.2838 52.9153 0
      vertex -33.3342 49.8882 0
    endloop
  endfacet
  facet normal 0.989176 -0.146737 0
    outer loop
      vertex 58.8471 -11.7054 8
      vertex 59.7111 -5.88103 0
      vertex 59.7111 -5.88103 8
    endloop
  endfacet
  facet normal 0.989176 -0.146737 0
    outer loop
      vertex 59.7111 -5.88103 0
      vertex 58.8471 -11.7054 8
      vertex 58.8471 -11.7054 0
    endloop
  endfacet
  facet normal 0.514104 -0.857728 0
    outer loop
      vertex 28.2838 -52.9153 0
      vertex 33.3342 -49.8882 8
      vertex 28.2838 -52.9153 8
    endloop
  endfacet
  facet normal 0.514104 -0.857728 0
    outer loop
      vertex 33.3342 -49.8882 8
      vertex 28.2838 -52.9153 0
      vertex 33.3342 -49.8882 0
    endloop
  endfacet
  facet normal -0.941546 0.336884 0
    outer loop
      vertex -57.4164 17.4171 0
      vertex -55.4328 22.961 8
      vertex -55.4328 22.961 0
    endloop
  endfacet
  facet normal -0.941546 0.336884 0
    outer loop
      vertex -55.4328 22.961 8
      vertex -57.4164 17.4171 0
      vertex -57.4164 17.4171 8
    endloop
  endfacet
  facet normal 0.336884 0.941546 -0
    outer loop
      vertex 22.961 55.4328 0
      vertex 17.4171 57.4164 8
      vertex 22.961 55.4328 8
    endloop
  endfacet
  facet normal 0.336884 0.941546 0
    outer loop
      vertex 17.4171 57.4164 8
      vertex 22.961 55.4328 0
      vertex 17.4171 57.4164 0
    endloop
  endfacet
  facet normal 0.242979 0.970032 -0
    outer loop
      vertex 17.4171 57.4164 0
      vertex 11.7054 58.8471 8
      vertex 17.4171 57.4164 8
    endloop
  endfacet
  facet normal 0.242979 0.970032 0
    outer loop
      vertex 11.7054 58.8471 8
      vertex 17.4171 57.4164 0
      vertex 11.7054 58.8471 0
    endloop
  endfacet
  facet normal -0.427556 0.903989 0
    outer loop
      vertex -22.961 55.4328 0
      vertex -28.2838 52.9153 8
      vertex -22.961 55.4328 8
    endloop
  endfacet
  facet normal -0.427556 0.903989 0
    outer loop
      vertex -28.2838 52.9153 8
      vertex -22.961 55.4328 0
      vertex -28.2838 52.9153 0
    endloop
  endfacet
  facet normal -0.595703 0.803204 0
    outer loop
      vertex -33.3342 49.8882 0
      vertex -38.0636 46.3806 8
      vertex -33.3342 49.8882 8
    endloop
  endfacet
  facet normal -0.595703 0.803204 0
    outer loop
      vertex -38.0636 46.3806 8
      vertex -33.3342 49.8882 0
      vertex -38.0636 46.3806 0
    endloop
  endfacet
  facet normal -0.146737 0.989176 0
    outer loop
      vertex -5.88103 59.7111 0
      vertex -11.7054 58.8471 8
      vertex -5.88103 59.7111 8
    endloop
  endfacet
  facet normal -0.146737 0.989176 0
    outer loop
      vertex -11.7054 58.8471 8
      vertex -5.88103 59.7111 0
      vertex -11.7054 58.8471 0
    endloop
  endfacet
  facet normal 0.242979 -0.970032 0
    outer loop
      vertex 11.7054 -58.8471 0
      vertex 17.4171 -57.4164 8
      vertex 11.7054 -58.8471 8
    endloop
  endfacet
  facet normal 0.242979 -0.970032 0
    outer loop
      vertex 17.4171 -57.4164 8
      vertex 11.7054 -58.8471 0
      vertex 17.4171 -57.4164 0
    endloop
  endfacet
  facet normal -0.903989 -0.427556 0
    outer loop
      vertex -52.9153 -28.2838 0
      vertex -55.4328 -22.961 8
      vertex -55.4328 -22.961 0
    endloop
  endfacet
  facet normal -0.903989 -0.427556 0
    outer loop
      vertex -55.4328 -22.961 8
      vertex -52.9153 -28.2838 0
      vertex -52.9153 -28.2838 8
    endloop
  endfacet
  facet normal -0.970032 0.242979 0
    outer loop
      vertex -58.8471 11.7054 0
      vertex -57.4164 17.4171 8
      vertex -57.4164 17.4171 0
    endloop
  endfacet
  facet normal -0.970032 0.242979 0
    outer loop
      vertex -57.4164 17.4171 8
      vertex -58.8471 11.7054 0
      vertex -58.8471 11.7054 8
    endloop
  endfacet
  facet normal -0.740952 -0.671558 0
    outer loop
      vertex -42.4264 -42.4264 0
      vertex -46.3806 -38.0636 8
      vertex -46.3806 -38.0636 0
    endloop
  endfacet
  facet normal -0.740952 -0.671558 0
    outer loop
      vertex -46.3806 -38.0636 8
      vertex -42.4264 -42.4264 0
      vertex -42.4264 -42.4264 8
    endloop
  endfacet
  facet normal -0.336884 0.941546 0
    outer loop
      vertex -17.4171 57.4164 0
      vertex -22.961 55.4328 8
      vertex -17.4171 57.4164 8
    endloop
  endfacet
  facet normal -0.336884 0.941546 0
    outer loop
      vertex -22.961 55.4328 8
      vertex -17.4171 57.4164 0
      vertex -22.961 55.4328 0
    endloop
  endfacet
  facet normal -0.989176 0.146737 0
    outer loop
      vertex -59.7111 5.88103 0
      vertex -58.8471 11.7054 8
      vertex -58.8471 11.7054 0
    endloop
  endfacet
  facet normal -0.989176 0.146737 0
    outer loop
      vertex -58.8471 11.7054 8
      vertex -59.7111 5.88103 0
      vertex -59.7111 5.88103 8
    endloop
  endfacet
  facet normal -0.998796 0.0490649 0
    outer loop
      vertex -60 0 0
      vertex -59.7111 5.88103 8
      vertex -59.7111 5.88103 0
    endloop
  endfacet
  facet normal -0.998796 0.0490649 0
    outer loop
      vertex -59.7111 5.88103 8
      vertex -60 0 0
      vertex -60 0 8
    endloop
  endfacet
  facet normal -0.989176 -0.146737 0
    outer loop
      vertex -58.8471 -11.7054 0
      vertex -59.7111 -5.88103 8
      vertex -59.7111 -5.88103 0
    endloop
  endfacet
  facet normal -0.989176 -0.146737 0
    outer loop
      vertex -59.7111 -5.88103 8
      vertex -58.8471 -11.7054 0
      vertex -58.8471 -11.7054 8
    endloop
  endfacet
  facet normal -0.803204 0.595703 0
    outer loop
      vertex -49.8882 33.3342 0
      vertex -46.3806 38.0636 8
      vertex -46.3806 38.0636 0
    endloop
  endfacet
  facet normal -0.803204 0.595703 0
    outer loop
      vertex -46.3806 38.0636 8
      vertex -49.8882 33.3342 0
      vertex -49.8882 33.3342 8
    endloop
  endfacet
  facet normal 0.970032 -0.242979 0
    outer loop
      vertex 57.4164 -17.4171 8
      vertex 58.8471 -11.7054 0
      vertex 58.8471 -11.7054 8
    endloop
  endfacet
  facet normal 0.970032 -0.242979 0
    outer loop
      vertex 58.8471 -11.7054 0
      vertex 57.4164 -17.4171 8
      vertex 57.4164 -17.4171 0
    endloop
  endfacet
  facet normal -0.803204 -0.595703 0
    outer loop
      vertex -46.3806 -38.0636 0
      vertex -49.8882 -33.3342 8
      vertex -49.8882 -33.3342 0
    endloop
  endfacet
  facet normal -0.803204 -0.595703 0
    outer loop
      vertex -49.8882 -33.3342 8
      vertex -46.3806 -38.0636 0
      vertex -46.3806 -38.0636 8
    endloop
  endfacet
  facet normal 0.0490649 0.998796 -0
    outer loop
      vertex 5.88103 59.7111 0
      vertex 0 60 8
      vertex 5.88103 59.7111 8
    endloop
  endfacet
  facet normal 0.0490649 0.998796 0
    outer loop
      vertex 0 60 8
      vertex 5.88103 59.7111 0
      vertex 0 60 0
    endloop
  endfacet
  facet normal -0.514104 -0.857728 0
    outer loop
      vertex -33.3342 -49.8882 0
      vertex -28.2838 -52.9153 8
      vertex -33.3342 -49.8882 8
    endloop
  endfacet
  facet normal -0.514104 -0.857728 -0
    outer loop
      vertex -28.2838 -52.9153 8
      vertex -33.3342 -49.8882 0
      vertex -28.2838 -52.9153 0
    endloop
  endfacet
  facet normal -0.595703 -0.803204 0
    outer loop
      vertex -38.0636 -46.3806 0
      vertex -33.3342 -49.8882 8
      vertex -38.0636 -46.3806 8
    endloop
  endfacet
  facet normal -0.595703 -0.803204 -0
    outer loop
      vertex -33.3342 -49.8882 8
      vertex -38.0636 -46.3806 0
      vertex -33.3342 -49.8882 0
    endloop
  endfacet
  facet normal 0.857728 -0.514104 0
    outer loop
      vertex 49.8882 -33.3342 8
      vertex 52.9153 -28.2838 0
      vertex 52.9153 -28.2838 8
    endloop
  endfacet
  facet normal 0.857728 -0.514104 0
    outer loop
      vertex 52.9153 -28.2838 0
      vertex 49.8882 -33.3342 8
      vertex 49.8882 -33.3342 0
    endloop
  endfacet
  facet normal -0.427556 -0.903989 0
    outer loop
      vertex -28.2838 -52.9153 0
      vertex -22.961 -55.4328 8
      vertex -28.2838 -52.9153 8
    endloop
  endfacet
  facet normal -0.427556 -0.903989 -0
    outer loop
      vertex -22.961 -55.4328 8
      vertex -28.2838 -52.9153 0
      vertex -22.961 -55.4328 0
    endloop
  endfacet
  facet normal 0.803204 -0.595703 0
    outer loop
      vertex 46.3806 -38.0636 8
      vertex 49.8882 -33.3342 0
      vertex 49.8882 -33.3342 8
    endloop
  endfacet
  facet normal 0.803204 -0.595703 0
    outer loop
      vertex 49.8882 -33.3342 0
      vertex 46.3806 -38.0636 8
      vertex 46.3806 -38.0636 0
    endloop
  endfacet
  facet normal -0.242979 -0.970032 0
    outer loop
      vertex -17.4171 -57.4164 0
      vertex -11.7054 -58.8471 8
      vertex -17.4171 -57.4164 8
    endloop
  endfacet
  facet normal -0.242979 -0.970032 -0
    outer loop
      vertex -11.7054 -58.8471 8
      vertex -17.4171 -57.4164 0
      vertex -11.7054 -58.8471 0
    endloop
  endfacet
  facet normal -0.857728 -0.514104 0
    outer loop
      vertex -49.8882 -33.3342 0
      vertex -52.9153 -28.2838 8
      vertex -52.9153 -28.2838 0
    endloop
  endfacet
  facet normal -0.857728 -0.514104 0
    outer loop
      vertex -52.9153 -28.2838 8
      vertex -49.8882 -33.3342 0
      vertex -49.8882 -33.3342 8
    endloop
  endfacet
  facet normal -0.903989 0.427556 0
    outer loop
      vertex -55.4328 22.961 0
      vertex -52.9153 28.2838 8
      vertex -52.9153 28.2838 0
    endloop
  endfacet
  facet normal -0.903989 0.427556 0
    outer loop
      vertex -52.9153 28.2838 8
      vertex -55.4328 22.961 0
      vertex -55.4328 22.961 8
    endloop
  endfacet
  facet normal 0.671558 -0.740952 0
    outer loop
      vertex 38.0636 -46.3806 0
      vertex 42.4264 -42.4264 8
      vertex 38.0636 -46.3806 8
    endloop
  endfacet
  facet normal 0.671558 -0.740952 0
    outer loop
      vertex 42.4264 -42.4264 8
      vertex 38.0636 -46.3806 0
      vertex 42.4264 -42.4264 0
    endloop
  endfacet
  facet normal 0 0 -1
    outer loop
      vertex 59.7111 -5.88103 0
      vertex 59.7111 5.88103 0
      vertex 60 0 0
    endloop
  endfacet
  facet normal 0 0 -1
    outer loop
      vertex 58.8471 -11.7054 0
      vertex 59.7111 5.88103 0
      vertex 59.7111 -5.88103 0
    endloop
  endfacet
  facet normal 0 0 -1
    outer loop
      vertex 58.8471 -11.7054 0
      vertex 58.8471 11.7054 0
      vertex 59.7111 5.88103 0
    endloop
  endfacet
  facet normal 0 0 -1
    outer loop
      vertex 57.4164 -17.4171 0
      vertex 58.8471 11.7054 0
      vertex 58.8471 -11.7054 0
    endloop
  endfacet
  facet normal 0 0 -1
    outer loop
      vertex 57.4164 -17.4171 0
      vertex 57.4164 17.4171 0
      vertex 58.8471 11.7054 0
    endloop
  endfacet
  facet normal 0 0 -1
    outer loop
      vertex 55.4328 -22.961 0
      vertex 57.4164 17.4171 0
      vertex 57.4164 -17.4171 0
    endloop
  endfacet
  facet normal 0 0 -1
    outer loop
      vertex 55.4328 -22.961 0
      vertex 55.4328 22.961 0
      vertex 57.4164 17.4171 0
    endloop
  endfacet
  facet normal 0 0 -1
    outer loop
      vertex 52.9153 -28.2838 0
      vertex 55.4328 22.961 0
      vertex 55.4328 -22.961 0
    endloop
  endfacet
  facet normal 0 0 -1
    outer loop
      vertex 52.9153 -28.2838 0
      vertex 52.9153 28.2838 0
      vertex 55.4328 22.961 0
    endloop
  endfacet
  facet normal 0 0 -1
    outer loop
      vertex 49.8882 -33.3342 0
      vertex 52.9153 28.2838 0
      vertex 52.9153 -28.2838 0
    endloop
  endfacet
  facet normal 0 0 -1
    outer loop
      vertex 49.8882 -33.3342 0
      vertex 49.8882 33.3342 0
      vertex 52.9153 28.2838 0
    endloop
  endfacet
  facet normal 0 0 -1
    outer loop
      vertex 46.3806 -38.0636 0
      vertex 49.8882 33.3342 0
      vertex 49.8882 -33.3342 0
    endloop
  endfacet
  facet normal 0 0 -1
    outer loop
      vertex 46.3806 -38.0636 0
      vertex 46.3806 38.0636 0
      vertex 49.8882 33.3342 0
    endloop
  endfacet
  facet normal 0 0 -1
    outer loop
      vertex 42.4264 -42.4264 0
      vertex 46.3806 38.0636 0
      vertex 46.3806 -38.0636 0
    endloop
  endfacet
  facet normal 0 0 -1
    outer loop
      vertex 42.4264 -42.4264 0
      vertex 42.4264 42.4264 0
      vertex 46.3806 38.0636 0
    endloop
  endfacet
  facet normal 0 0 -1
    outer loop
      vertex 38.0636 -46.3806 0
      vertex 42.4264 42.4264 0
      vertex 42.4264 -42.4264 0
    endloop
  endfacet
  facet normal 0 0 -1
    outer loop
      vertex 38.0636 -46.3806 0
      vertex 38.0636 46.3806 0
      vertex 42.4264 42.4264 0
    endloop
  endfacet
  facet normal 0 0 -1
    outer loop
      vertex 33.3342 -49.8882 0
      vertex 38.0636 46.3806 0
      vertex 38.0636 -46.3806 0
    endloop
  endfacet
  facet normal 0 0 -1
    outer loop
      vertex 33.3342 -49.8882 0
      vertex 33.3342 49.8882 0
      vertex 38.0636 46.3806 0
    endloop
  endfacet
  facet normal 0 0 -1
    outer loop
      vertex 28.2838 -52.9153 0
      vertex 33.3342 49.8882 0
      vertex 33.3342 -49.8882 0
    endloop
  endfacet
  facet normal 0 0 -1
    outer loop
      vertex 28.2838 -52.9153 0
      vertex 28.2838 52.9153 0
      vertex 33.3342 49.8882 0
    endloop
  endfacet
  facet normal 0 0 -1
    outer loop
      vertex 22.961 -55.4328 0
      vertex 28.2838 52.9153 0
      vertex 28.2838 -52.9153 0
    endloop
  endfacet
  facet normal 0 0 -1
    outer loop
      vertex 22.961 -55.4328 0
      vertex 22.961 55.4328 0
      vertex 28.2838 52.9153 0
    endloop
  endfacet
  facet normal 0 0 -1
    outer loop
      vertex 17.4171 -57.4164 0
      vertex 22.961 55.4328 0
      vertex 22.961 -55.4328 0
    endloop
  endfacet
  facet normal 0 0 -1
    outer loop
      vertex 17.4171 -57.4164 0
      vertex 17.4171 57.4164 0
      vertex 22.961 55.4328 0
    endloop
  endfacet
  facet normal 0 0 -1
    outer loop
      vertex 11.7054 -58.8471 0
      vertex 17.4171 57.4164 0
      vertex 17.4171 -57.4164 0
    endloop
  endfacet
  facet normal 0 0 -1
    outer loop
      vertex 11.7054 -58.8471 0
      vertex 11.7054 58.8471 0
      vertex 17.4171 57.4164 0
    endloop
  endfacet
  facet normal 0 0 -1
    outer loop
      vertex 5.88103 -59.7111 0
      vertex 11.7054 58.8471 0
      vertex 11.7054 -58.8471 0
    endloop
  endfacet
  facet normal 0 0 -1
    outer loop
      vertex 5.88103 -59.7111 0
      vertex 5.88103 59.7111 0
      vertex 11.7054 58.8471 0
    endloop
  endfacet
  facet normal 0 0 -1
    outer loop
      vertex 0 -60 0
      vertex 5.88103 59.7111 0
      vertex 5.88103 -59.7111 0
    endloop
  endfacet
  facet normal 0 0 -1
    outer loop
      vertex 0 -60 0
      vertex 0 60 0
      vertex 5.88103 59.7111 0
    endloop
  endfacet
  facet normal 0 0 -1
    outer loop
      vertex -5.88103 -59.7111 0
      vertex 0 60 0
      vertex 0 -60 0
    endloop
  endfacet
  facet normal 0 0 -1
    outer loop
      vertex -5.88103 -59.7111 0
      vertex -5.88103 59.7111 0
      vertex 0 60 0
    endloop
  endfacet
  facet normal 0 0 -1
    outer loop
      vertex -11.7054 -58.8471 0
      vertex -5.88103 59.7111 0
      vertex -5.88103 -59.7111 0
    endloop
  endfacet
  facet normal 0 0 -1
    outer loop
      vertex -11.7054 -58.8471 0
      vertex -11.7054 58.8471 0
      vertex -5.88103 59.7111 0
    endloop
  endfacet
  facet normal 0 0 -1
    outer loop
      vertex -17.4171 -57.4164 0
      vertex -11.7054 58.8471 0
      vertex -11.7054 -58.8471 0
    endloop
  endfacet
  facet normal 0 0 -1
    outer loop
      vertex -17.4171 -57.4164 0
      vertex -17.4171 57.4164 0
      vertex -11.7054 58.8471 0
    endloop
  endfacet
  facet normal 0 0 -1
    outer loop
      vertex -22.961 -55.4328 0
      vertex -17.4171 57.4164 0
      vertex -17.4171 -57.4164 0
    endloop
  endfacet
  facet normal 0 0 -1
    outer loop
      vertex -22.961 -55.4328 0
      vertex -22.961 55.4328 0
      vertex -17.4171 57.4164 0
    endloop
  endfacet
  facet normal 0 0 -1
    outer loop
      vertex -28.2838 -52.9153 0
      vertex -22.961 55.4328 0
      vertex -22.961 -55.4328 0
    endloop
  endfacet
  facet normal 0 0 -1
    outer loop
      vertex -28.2838 -52.9153 0
      vertex -28.2838 52.9153 0
      vertex -22.961 55.4328 0
    endloop
  endfacet
  facet normal 0 0 -1
    outer loop
      vertex -33.3342 -49.8882 0
      vertex -28.2838 52.9153 0
      vertex -28.2838 -52.9153 0
    endloop
  endfacet
  facet normal 0 0 -1
    outer loop
      vertex -33.3342 -49.8882 0
      vertex -33.3342 49.8882 0
      vertex -28.2838 52.9153 0
    endloop
  endfacet
  facet normal 0 0 -1
    outer loop
      vertex -38.0636 -46.3806 0
      vertex -33.3342 49.8882 0
      vertex -33.3342 -49.8882 0
    endloop
  endfacet
  facet normal 0 0 -1
    outer loop
      vertex -38.0636 -46.3806 0
      vertex -38.0636 46.3806 0
      vertex -33.3342 49.8882 0
    endloop
  endfacet
  facet normal 0 0 -1
    outer loop
      vertex -42.4264 -42.4264 0
      vertex -38.0636 46.3806 0
      vertex -38.0636 -46.3806 0
    endloop
  endfacet
  facet normal 0 0 -1
    outer loop
      vertex -42.4264 -42.4264 0
      vertex -42.4264 42.4264 0
      vertex -38.0636 46.3806 0
    endloop
  endfacet
  facet normal 0 0 -1
    outer loop
      vertex -46.3806 -38.0636 0
      vertex -42.4264 42.4264 0
      vertex -42.4264 -42.4264 0
    endloop
  endfacet
  facet normal 0 0 -1
    outer loop
      vertex -46.3806 -38.0636 0
      vertex -46.3806 38.0636 0
      vertex -42.4264 42.4264 0
    endloop
  endfacet
  facet normal 0 0 -1
    outer loop
      vertex -49.8882 -33.3342 0
      vertex -46.3806 38.0636 0
      vertex -46.3806 -38.0636 0
    endloop
  endfacet
  facet normal 0 0 -1
    outer loop
      vertex -49.8882 -33.3342 0
      vertex -49.8882 33.3342 0
      vertex -46.3806 38.0636 0
    endloop
  endfacet
  facet normal 0 0 -1
    outer loop
      vertex -52.9153 -28.2838 0
      vertex -49.8882 33.3342 0
      vertex -49.8882 -33.3342 0
    endloop
  endfacet
  facet normal 0 0 -1
    outer loop
      vertex -52.9153 -28.2838 0
      vertex -52.9153 28.2838 0
      vertex -49.8882 33.3342 0
    endloop
  endfacet
  facet normal 0 0 -1
    outer loop
      vertex -55.4328 -22.961 0
      vertex -52.9153 28.2838 0
      vertex -52.9153 -28.2838 0
    endloop
  endfacet
  facet normal 0 0 -1
    outer loop
      vertex -55.4328 -22.961 0
      vertex -55.4328 22.961 0
      vertex -52.9153 28.2838 0
    endloop
  endfacet
  facet normal 0 0 -1
    outer loop
      vertex -57.4164 -17.4171 0
      vertex -55.4328 22.961 0
      vertex -55.4328 -22.961 0
    endloop
  endfacet
  facet normal 0 0 -1
    outer loop
      vertex -57.4164 -17.4171 0
      vertex -57.4164 17.4171 0
      vertex -55.4328 22.961 0
    endloop
  endfacet
  facet normal 0 0 -1
    outer loop
      vertex -58.8471 -11.7054 0
      vertex -57.4164 17.4171 0
      vertex -57.4164 -17.4171 0
    endloop
  endfacet
  facet normal 0 0 -1
    outer loop
      vertex -58.8471 -11.7054 0
      vertex -58.8471 11.7054 0
      vertex -57.4164 17.4171 0
    endloop
  endfacet
  facet normal 0 0 -1
    outer loop
      vertex -59.7111 -5.88103 0
      vertex -58.8471 11.7054 0
      vertex -58.8471 -11.7054 0
    endloop
  endfacet
  facet normal 0 0 -1
    outer loop
      vertex -59.7111 -5.88103 0
      vertex -59.7111 5.88103 0
      vertex -58.8471 11.7054 0
    endloop
  endfacet
  facet normal 0 -0 -1
    outer loop
      vertex -59.7111 5.88103 0
      vertex -59.7111 -5.88103 0
      vertex -60 0 0
    endloop
  endfacet
  facet normal 0 0 1
    outer loop
      vertex 30 0 8
      vertex 60 0 8
      vertex 59.7111 5.88103 8
    endloop
  endfacet
  facet normal 0 0 1
    outer loop
      vertex 29.8555 2.94051 8
      vertex 59.7111 5.88103 8
      vertex 58.8471 11.7054 8
    endloop
  endfacet
  facet normal 0 0 1
    outer loop
      vertex 60 0 8
      vertex 30 0 8
      vertex 59.7111 -5.88103 8
    endloop
  endfacet
  facet normal 0 0 1
    outer loop
      vertex 29.4236 5.85271 8
      vertex 58.8471 11.7054 8
      vertex 57.4164 17.4171 8
    endloop
  endfacet
  facet normal -0 0 1
    outer loop
      vertex 29.8555 -2.94051 8
      vertex 59.7111 -5.88103 8
      vertex 30 0 8
    endloop
  endfacet
  facet normal 0 0 1
    outer loop
      vertex 28.7082 8.70854 8
      vertex 57.4164 17.4171 8
      vertex 55.4328 22.961 8
    endloop
  endfacet
  facet normal 0 0 1
    outer loop
      vertex 59.7111 -5.88103 8
      vertex 29.8555 -2.94051 8
      vertex 58.8471 -11.7054 8
    endloop
  endfacet
  facet normal 0 0 1
    outer loop
      vertex 27.7164 11.4805 8
      vertex 55.4328 22.961 8
      vertex 52.9153 28.2838 8
    endloop
  endfacet
  facet normal -0 0 1
    outer loop
      vertex 29.4236 -5.85271 8
      vertex 58.8471 -11.7054 8
      vertex 29.8555 -2.94051 8
    endloop
  endfacet
  facet normal 0 0 1
    outer loop
      vertex 26.4576 14.1419 8
      vertex 52.9153 28.2838 8
      vertex 49.8882 33.3342 8
    endloop
  endfacet
  facet normal 0 0 1
    outer loop
      vertex 58.8471 -11.7054 8
      vertex 29.4236 -5.85271 8
      vertex 57.4164 -17.4171 8
    endloop
  endfacet
  facet normal 0 0 1
    outer loop
      vertex 24.9441 16.6671 8
      vertex 49.8882 33.3342 8
      vertex 46.3806 38.0636 8
    endloop
  endfacet
  facet normal -0 0 1
    outer loop
      vertex 28.7082 -8.70854 8
      vertex 57.4164 -17.4171 8
      vertex 29.4236 -5.85271 8
    endloop
  endfacet
  facet normal 0 0 1
    outer loop
      vertex 23.1903 19.0318 8
      vertex 46.3806 38.0636 8
      vertex 42.4264 42.4264 8
    endloop
  endfacet
  facet normal 0 0 1
    outer loop
      vertex 57.4164 -17.4171 8
      vertex 28.7082 -8.70854 8
      vertex 55.4328 -22.961 8
    endloop
  endfacet
  facet normal 0 0 1
    outer loop
      vertex 21.2132 21.2132 8
      vertex 42.4264 42.4264 8
      vertex 38.0636 46.3806 8
    endloop
  endfacet
  facet normal -0 0 1
    outer loop
      vertex 27.7164 -11.4805 8
      vertex 55.4328 -22.961 8
      vertex 28.7082 -8.70854 8
    endloop
  endfacet
  facet normal 0 0 1
    outer loop
      vertex 19.0318 23.1903 8
      vertex 38.0636 46.3806 8
      vertex 33.3342 49.8882 8
    endloop
  endfacet
  facet normal 0 0 1
    outer loop
      vertex 55.4328 -22.961 8
      vertex 27.7164 -11.4805 8
      vertex 52.9153 -28.2838 8
    endloop
  endfacet
  facet normal -0 0 1
    outer loop
      vertex 26.4576 -14.1419 8
      vertex 52.9153 -28.2838 8
      vertex 27.7164 -11.4805 8
    endloop
  endfacet
  facet normal 0 0 1
    outer loop
      vertex 59.7111 5.88103 8
      vertex 29.8555 2.94051 8
      vertex 30 0 8
    endloop
  endfacet
  facet normal 0 0 1
    outer loop
      vertex 58.8471 11.7054 8
      vertex 29.4236 5.85271 8
      vertex 29.8555 2.94051 8
    endloop
  endfacet
  facet normal 0 0 1
    outer loop
      vertex 57.4164 17.4171 8
      vertex 28.7082 8.70854 8
      vertex 29.4236 5.85271 8
    endloop
  endfacet
  facet normal 0 0 1
    outer loop
      vertex 16.6671 24.9441 8
      vertex 33.3342 49.8882 8
      vertex 28.2838 52.9153 8
    endloop
  endfacet
  facet normal 0 0 1
    outer loop
      vertex 55.4328 22.961 8
      vertex 27.7164 11.4805 8
      vertex 28.7082 8.70854 8
    endloop
  endfacet
  facet normal 0 0 1
    outer loop
      vertex 52.9153 28.2838 8
      vertex 26.4576 14.1419 8
      vertex 27.7164 11.4805 8
    endloop
  endfacet
  facet normal 0 0 1
    outer loop
      vertex 49.8882 33.3342 8
      vertex 24.9441 16.6671 8
      vertex 26.4576 14.1419 8
    endloop
  endfacet
  facet normal 0 0 1
    outer loop
      vertex 46.3806 38.0636 8
      vertex 23.1903 19.0318 8
      vertex 24.9441 16.6671 8
    endloop
  endfacet
  facet normal 0 0 1
    outer loop
      vertex 14.1419 26.4576 8
      vertex 28.2838 52.9153 8
      vertex 22.961 55.4328 8
    endloop
  endfacet
  facet normal 0 0 1
    outer loop
      vertex 42.4264 42.4264 8
      vertex 21.2132 21.2132 8
      vertex 23.1903 19.0318 8
    endloop
  endfacet
  facet normal 0 0 1
    outer loop
      vertex 38.0636 46.3806 8
      vertex 19.0318 23.1903 8
      vertex 21.2132 21.2132 8
    endloop
  endfacet
  facet normal 0 0 1
    outer loop
      vertex 11.4805 27.7164 8
      vertex 22.961 55.4328 8
      vertex 17.4171 57.4164 8
    endloop
  endfacet
  facet normal 0 0 1
    outer loop
      vertex 33.3342 49.8882 8
      vertex 16.6671 24.9441 8
      vertex 19.0318 23.1903 8
    endloop
  endfacet
  facet normal 0 0 1
    outer loop
      vertex 28.2838 52.9153 8
      vertex 14.1419 26.4576 8
      vertex 16.6671 24.9441 8
    endloop
  endfacet
  facet normal 0 0 1
    outer loop
      vertex 8.70854 28.7082 8
      vertex 17.4171 57.4164 8
      vertex 11.7054 58.8471 8
    endloop
  endfacet
  facet normal 0 0 1
    outer loop
      vertex 22.961 55.4328 8
      vertex 11.4805 27.7164 8
      vertex 14.1419 26.4576 8
    endloop
  endfacet
  facet normal 0 0 1
    outer loop
      vertex 17.4171 57.4164 8
      vertex 8.70854 28.7082 8
      vertex 11.4805 27.7164 8
    endloop
  endfacet
  facet normal 0 0 1
    outer loop
      vertex 5.85271 29.4236 8
      vertex 11.7054 58.8471 8
      vertex 5.88103 59.7111 8
    endloop
  endfacet
  facet normal 0 0 1
    outer loop
      vertex 11.7054 58.8471 8
      vertex 5.85271 29.4236 8
      vertex 8.70854 28.7082 8
    endloop
  endfacet
  facet normal 0 0 1
    outer loop
      vertex 5.88103 59.7111 8
      vertex 2.94051 29.8555 8
      vertex 5.85271 29.4236 8
    endloop
  endfacet
  facet normal 0 0 1
    outer loop
      vertex 0 60 8
      vertex 2.94051 29.8555 8
      vertex 5.88103 59.7111 8
    endloop
  endfacet
  facet normal 0 0 1
    outer loop
      vertex 0 60 8
      vertex 0 30 8
      vertex 2.94051 29.8555 8
    endloop
  endfacet
  facet normal 0 0 1
    outer loop
      vertex 0 60 8
      vertex -2.94051 29.8555 8
      vertex 0 30 8
    endloop
  endfacet
  facet normal -0 0 1
    outer loop
      vertex -5.88103 59.7111 8
      vertex -2.94051 29.8555 8
      vertex 0 60 8
    endloop
  endfacet
  facet normal 0 0 1
    outer loop
      vertex -2.94051 29.8555 8
      vertex -5.88103 59.7111 8
      vertex -5.85271 29.4236 8
    endloop
  endfacet
  facet normal -0 0 1
    outer loop
      vertex -11.7054 58.8471 8
      vertex -5.85271 29.4236 8
      vertex -5.88103 59.7111 8
    endloop
  endfacet
  facet normal 0 0 1
    outer loop
      vertex -5.85271 29.4236 8
      vertex -11.7054 58.8471 8
      vertex -8.70854 28.7082 8
    endloop
  endfacet
  facet normal -0 0 1
    outer loop
      vertex -17.4171 57.4164 8
      vertex -8.70854 28.7082 8
      vertex -11.7054 58.8471 8
    endloop
  endfacet
  facet normal 0 0 1
    outer loop
      vertex -8.70854 28.7082 8
      vertex -17.4171 57.4164 8
      vertex -11.4805 27.7164 8
    endloop
  endfacet
  facet normal -0 0 1
    outer loop
      vertex -22.961 55.4328 8
      vertex -11.4805 27.7164 8
      vertex -17.4171 57.4164 8
    endloop
  endfacet
  facet normal 0 0 1
    outer loop
      vertex -11.4805 27.7164 8
      vertex -22.961 55.4328 8
      vertex -14.1419 26.4576 8
    endloop
  endfacet
  facet normal -0 0 1
    outer loop
      vertex -28.2838 52.9153 8
      vertex -14.1419 26.4576 8
      vertex -22.961 55.4328 8
    endloop
  endfacet
  facet normal 0 0 1
    outer loop
      vertex -14.1419 26.4576 8
      vertex -28.2838 52.9153 8
      vertex -16.6671 24.9441 8
    endloop
  endfacet
  facet normal -0 0 1
    outer loop
      vertex -33.3342 49.8882 8
      vertex -16.6671 24.9441 8
      vertex -28.2838 52.9153 8
    endloop
  endfacet
  facet normal 0 0 1
    outer loop
      vertex -16.6671 24.9441 8
      vertex -33.3342 49.8882 8
      vertex -19.0318 23.1903 8
    endloop
  endfacet
  facet normal -0 0 1
    outer loop
      vertex -38.0636 46.3806 8
      vertex -19.0318 23.1903 8
      vertex -33.3342 49.8882 8
    endloop
  endfacet
  facet normal 0 0 1
    outer loop
      vertex -19.0318 23.1903 8
      vertex -38.0636 46.3806 8
      vertex -21.2132 21.2132 8
    endloop
  endfacet
  facet normal -0 0 1
    outer loop
      vertex -42.4264 42.4264 8
      vertex -21.2132 21.2132 8
      vertex -38.0636 46.3806 8
    endloop
  endfacet
  facet normal 0 0 1
    outer loop
      vertex -21.2132 21.2132 8
      vertex -42.4264 42.4264 8
      vertex -23.1903 19.0318 8
    endloop
  endfacet
  facet normal -0 0 1
    outer loop
      vertex -46.3806 38.0636 8
      vertex -23.1903 19.0318 8
      vertex -42.4264 42.4264 8
    endloop
  endfacet
  facet normal 0 0 1
    outer loop
      vertex -23.1903 19.0318 8
      vertex -46.3806 38.0636 8
      vertex -24.9441 16.6671 8
    endloop
  endfacet
  facet normal -0 0 1
    outer loop
      vertex -49.8882 33.3342 8
      vertex -24.9441 16.6671 8
      vertex -46.3806 38.0636 8
    endloop
  endfacet
  facet normal 0 0 1
    outer loop
      vertex -24.9441 16.6671 8
      vertex -49.8882 33.3342 8
      vertex -26.4576 14.1419 8
    endloop
  endfacet
  facet normal -0 0 1
    outer loop
      vertex -52.9153 28.2838 8
      vertex -26.4576 14.1419 8
      vertex -49.8882 33.3342 8
    endloop
  endfacet
  facet normal 0 0 1
    outer loop
      vertex 52.9153 -28.2838 8
      vertex 26.4576 -14.1419 8
      vertex 49.8882 -33.3342 8
    endloop
  endfacet
  facet normal -0 0 1
    outer loop
      vertex 24.9441 -16.6671 8
      vertex 49.8882 -33.3342 8
      vertex 26.4576 -14.1419 8
    endloop
  endfacet
  facet normal 0 0 1
    outer loop
      vertex 49.8882 -33.3342 8
      vertex 24.9441 -16.6671 8
      vertex 46.3806 -38.0636 8
    endloop
  endfacet
  facet normal -0 0 1
    outer loop
      vertex 23.1903 -19.0318 8
      vertex 46.3806 -38.0636 8
      vertex 24.9441 -16.6671 8
    endloop
  endfacet
  facet normal 0 0 1
    outer loop
      vertex 46.3806 -38.0636 8
      vertex 23.1903 -19.0318 8
      vertex 42.4264 -42.4264 8
    endloop
  endfacet
  facet normal -0 0 1
    outer loop
      vertex 21.2132 -21.2132 8
      vertex 42.4264 -42.4264 8
      vertex 23.1903 -19.0318 8
    endloop
  endfacet
  facet normal 0 0 1
    outer loop
      vertex 42.4264 -42.4264 8
      vertex 21.2132 -21.2132 8
      vertex 38.0636 -46.3806 8
    endloop
  endfacet
  facet normal -0 0 1
    outer loop
      vertex 19.0318 -23.1903 8
      vertex 38.0636 -46.3806 8
      vertex 21.2132 -21.2132 8
    endloop
  endfacet
  facet normal 0 0 1
    outer loop
      vertex 38.0636 -46.3806 8
      vertex 19.0318 -23.1903 8
      vertex 33.3342 -49.8882 8
    endloop
  endfacet
  facet normal -0 0 1
    outer loop
      vertex 16.6671 -24.9441 8
      vertex 33.3342 -49.8882 8
      vertex 19.0318 -23.1903 8
    endloop
  endfacet
  facet normal 0 0 1
    outer loop
      vertex 33.3342 -49.8882 8
      vertex 16.6671 -24.9441 8
      vertex 28.2838 -52.9153 8
    endloop
  endfacet
  facet normal -0 0 1
    outer loop
      vertex 14.1419 -26.4576 8
      vertex 28.2838 -52.9153 8
      vertex 16.6671 -24.9441 8
    endloop
  endfacet
  facet normal 0 0 1
    outer loop
      vertex 28.2838 -52.9153 8
      vertex 14.1419 -26.4576 8
      vertex 22.961 -55.4328 8
    endloop
  endfacet
  facet normal -0 0 1
    outer loop
      vertex 11.4805 -27.7164 8
      vertex 22.961 -55.4328 8
      vertex 14.1419 -26.4576 8
    endloop
  endfacet
  facet normal 0 0 1
    outer loop
      vertex 22.961 -55.4328 8
      vertex 11.4805 -27.7164 8
      vertex 17.4171 -57.4164 8
    endloop
  endfacet
  facet normal -0 0 1
    outer loop
      vertex 8.70854 -28.7082 8
      vertex 17.4171 -57.4164 8
      vertex 11.4805 -27.7164 8
    endloop
  endfacet
  facet normal 0 0 1
    outer loop
      vertex 17.4171 -57.4164 8
      vertex 8.70854 -28.7082 8
      vertex 11.7054 -58.8471 8
    endloop
  endfacet
  facet normal -0 0 1
    outer loop
      vertex 5.85271 -29.4236 8
      vertex 11.7054 -58.8471 8
      vertex 8.70854 -28.7082 8
    endloop
  endfacet
  facet normal 0 0 1
    outer loop
      vertex 11.7054 -58.8471 8
      vertex 5.85271 -29.4236 8
      vertex 5.88103 -59.7111 8
    endloop
  endfacet
  facet normal -0 0 1
    outer loop
      vertex 2.94051 -29.8555 8
      vertex 5.88103 -59.7111 8
      vertex 5.85271 -29.4236 8
    endloop
  endfacet
  facet normal -0 0 1
    outer loop
      vertex 0 -30 8
      vertex 5.88103 -59.7111 8
      vertex 2.94051 -29.8555 8
    endloop
  endfacet
  facet normal 0 0 1
    outer loop
      vertex 0 -30 8
      vertex 0 -60 8
      vertex 5.88103 -59.7111 8
    endloop
  endfacet
  facet normal 0 0 1
    outer loop
      vertex -2.94051 -29.8555 8
      vertex 0 -60 8
      vertex 0 -30 8
    endloop
  endfacet
  facet normal 0 0 1
    outer loop
      vertex -5.88103 -59.7111 8
      vertex -2.94051 -29.8555 8
      vertex -5.85271 -29.4236 8
    endloop
  endfacet
  facet normal 0 0 1
    outer loop
      vertex -2.94051 -29.8555 8
      vertex -5.88103 -59.7111 8
      vertex 0 -60 8
    endloop
  endfacet
  facet normal 0 0 1
    outer loop
      vertex -11.7054 -58.8471 8
      vertex -5.85271 -29.4236 8
      vertex -8.70854 -28.7082 8
    endloop
  endfacet
  facet normal 0 0 1
    outer loop
      vertex -17.4171 -57.4164 8
      vertex -8.70854 -28.7082 8
      vertex -11.4805 -27.7164 8
    endloop
  endfacet
  facet normal 0 0 1
    outer loop
      vertex -5.85271 -29.4236 8
      vertex -11.7054 -58.8471 8
      vertex -5.88103 -59.7111 8
    endloop
  endfacet
  facet normal 0 0 1
    outer loop
      vertex -22.961 -55.4328 8
      vertex -11.4805 -27.7164 8
      vertex -14.1419 -26.4576 8
    endloop
  endfacet
  facet normal 0 0 1
    outer loop
      vertex -28.2838 -52.9153 8
      vertex -14.1419 -26.4576 8
      vertex -16.6671 -24.9441 8
    endloop
  endfacet
  facet normal 0 0 1
    outer loop
      vertex -8.70854 -28.7082 8
      vertex -17.4171 -57.4164 8
      vertex -11.7054 -58.8471 8
    endloop
  endfacet
  facet normal 0 0 1
    outer loop
      vertex -33.3342 -49.8882 8
      vertex -16.6671 -24.9441 8
      vertex -19.0318 -23.1903 8
    endloop
  endfacet
  facet normal 0 0 1
    outer loop
      vertex -38.0636 -46.3806 8
      vertex -19.0318 -23.1903 8
      vertex -21.2132 -21.2132 8
    endloop
  endfacet
  facet normal 0 0 1
    outer loop
      vertex -11.4805 -27.7164 8
      vertex -22.961 -55.4328 8
      vertex -17.4171 -57.4164 8
    endloop
  endfacet
  facet normal 0 0 1
    outer loop
      vertex -42.4264 -42.4264 8
      vertex -21.2132 -21.2132 8
      vertex -23.1903 -19.0318 8
    endloop
  endfacet
  facet normal 0 0 1
    outer loop
      vertex -46.3806 -38.0636 8
      vertex -23.1903 -19.0318 8
      vertex -24.9441 -16.6671 8
    endloop
  endfacet
  facet normal 0 0 1
    outer loop
      vertex -49.8882 -33.3342 8
      vertex -24.9441 -16.6671 8
      vertex -26.4576 -14.1419 8
    endloop
  endfacet
  facet normal 0 0 1
    outer loop
      vertex -52.9153 -28.2838 8
      vertex -26.4576 -14.1419 8
      vertex -27.7164 -11.4805 8
    endloop
  endfacet
  facet normal 0 0 1
    outer loop
      vertex -14.1419 -26.4576 8
      vertex -28.2838 -52.9153 8
      vertex -22.961 -55.4328 8
    endloop
  endfacet
  facet normal 0 0 1
    outer loop
      vertex -55.4328 -22.961 8
      vertex -27.7164 -11.4805 8
      vertex -28.7082 -8.70854 8
    endloop
  endfacet
  facet normal 0 0 1
    outer loop
      vertex -57.4164 -17.4171 8
      vertex -28.7082 -8.70854 8
      vertex -29.4236 -5.85271 8
    endloop
  endfacet
  facet normal 0 0 1
    outer loop
      vertex -58.8471 -11.7054 8
      vertex -29.4236 -5.85271 8
      vertex -29.8555 -2.94051 8
    endloop
  endfacet
  facet normal 0 0 1
    outer loop
      vertex -59.7111 -5.88103 8
      vertex -29.8555 -2.94051 8
      vertex -30 0 8
    endloop
  endfacet
  facet normal 0 0 1
    outer loop
      vertex -26.4576 14.1419 8
      vertex -52.9153 28.2838 8
      vertex -27.7164 11.4805 8
    endloop
  endfacet
  facet normal 0 0 1
    outer loop
      vertex -16.6671 -24.9441 8
      vertex -33.3342 -49.8882 8
      vertex -28.2838 -52.9153 8
    endloop
  endfacet
  facet normal -0 0 1
    outer loop
      vertex -55.4328 22.961 8
      vertex -27.7164 11.4805 8
      vertex -52.9153 28.2838 8
    endloop
  endfacet
  facet normal 0 0 1
    outer loop
      vertex -19.0318 -23.1903 8
      vertex -38.0636 -46.3806 8
      vertex -33.3342 -49.8882 8
    endloop
  endfacet
  facet normal 0 0 1
    outer loop
      vertex -27.7164 11.4805 8
      vertex -55.4328 22.961 8
      vertex -28.7082 8.70854 8
    endloop
  endfacet
  facet normal 0 0 1
    outer loop
      vertex -21.2132 -21.2132 8
      vertex -42.4264 -42.4264 8
      vertex -38.0636 -46.3806 8
    endloop
  endfacet
  facet normal -0 0 1
    outer loop
      vertex -57.4164 17.4171 8
      vertex -28.7082 8.70854 8
      vertex -55.4328 22.961 8
    endloop
  endfacet
  facet normal 0 0 1
    outer loop
      vertex -23.1903 -19.0318 8
      vertex -46.3806 -38.0636 8
      vertex -42.4264 -42.4264 8
    endloop
  endfacet
  facet normal 0 0 1
    outer loop
      vertex -28.7082 8.70854 8
      vertex -57.4164 17.4171 8
      vertex -29.4236 5.85271 8
    endloop
  endfacet
  facet normal 0 0 1
    outer loop
      vertex -24.9441 -16.6671 8
      vertex -49.8882 -33.3342 8
      vertex -46.3806 -38.0636 8
    endloop
  endfacet
  facet normal -0 0 1
    outer loop
      vertex -58.8471 11.7054 8
      vertex -29.4236 5.85271 8
      vertex -57.4164 17.4171 8
    endloop
  endfacet
  facet normal 0 0 1
    outer loop
      vertex -26.4576 -14.1419 8
      vertex -52.9153 -28.2838 8
      vertex -49.8882 -33.3342 8
    endloop
  endfacet
  facet normal 0 0 1
    outer loop
      vertex -29.4236 5.85271 8
      vertex -58.8471 11.7054 8
      vertex -29.8555 2.94051 8
    endloop
  endfacet
  facet normal 0 0 1
    outer loop
      vertex -27.7164 -11.4805 8
      vertex -55.4328 -22.961 8
      vertex -52.9153 -28.2838 8
    endloop
  endfacet
  facet normal -0 0 1
    outer loop
      vertex -59.7111 5.88103 8
      vertex -29.8555 2.94051 8
      vertex -58.8471 11.7054 8
    endloop
  endfacet
  facet normal 0 0 1
    outer loop
      vertex -28.7082 -8.70854 8
      vertex -57.4164 -17.4171 8
      vertex -55.4328 -22.961 8
    endloop
  endfacet
  facet normal 0 0 1
    outer loop
      vertex -29.8555 2.94051 8
      vertex -59.7111 5.88103 8
      vertex -30 0 8
    endloop
  endfacet
  facet normal 0 0 1
    outer loop
      vertex -29.4236 -5.85271 8
      vertex -58.8471 -11.7054 8
      vertex -57.4164 -17.4171 8
    endloop
  endfacet
  facet normal 0 0 1
    outer loop
      vertex -60 0 8
      vertex -30 0 8
      vertex -59.7111 5.88103 8
    endloop
  endfacet
  facet normal 0 0 1
    outer loop
      vertex -29.8555 -2.94051 8
      vertex -59.7111 -5.88103 8
      vertex -58.8471 -11.7054 8
    endloop
  endfacet
  facet normal 0 0 1
    outer loop
      vertex -30 0 8
      vertex -60 0 8
      vertex -59.7111 -5.88103 8
    endloop
  endfacet
  facet normal 0.989181 0.146703 0
    outer loop
      vertex 29.8555 2.94051 60
      vertex 29.4236 5.85271 8
      vertex 29.4236 5.85271 60
    endloop
  endfacet
  facet normal 0.989181 0.146703 0
    outer loop
      vertex 29.4236 5.85271 8
      vertex 29.8555 2.94051 60
      vertex 29.8555 2.94051 8
    endloop
  endfacet
  facet normal 0.998795 0.0490819 0
    outer loop
      vertex 30 0 60
      vertex 29.8555 2.94051 8
      vertex 29.8555 2.94051 60
    endloop
  endfacet
  facet normal 0.998795 0.0490819 0
    outer loop
      vertex 29.8555 2.94051 8
      vertex 30 0 60
      vertex 30 0 8
    endloop
  endfacet
  facet normal 0.970027 0.242997 0
    outer loop
      vertex 29.4236 5.85271 60
      vertex 28.7082 8.70854 8
      vertex 28.7082 8.70854 60
    endloop
  endfacet
  facet normal 0.970027 0.242997 0
    outer loop
      vertex 28.7082 8.70854 8
      vertex 29.4236 5.85271 60
      vertex 29.4236 5.85271 8
    endloop
  endfacet
  facet normal 0.595703 -0.803204 0
    outer loop
      vertex 16.6671 -24.9441 8
      vertex 19.0318 -23.1903 60
      vertex 16.6671 -24.9441 60
    endloop
  endfacet
  facet normal 0.595703 -0.803204 0
    outer loop
      vertex 19.0318 -23.1903 60
      vertex 16.6671 -24.9441 8
      vertex 19.0318 -23.1903 8
    endloop
  endfacet
  facet normal 0.427569 -0.903983 0
    outer loop
      vertex 11.4805 -27.7164 8
      vertex 14.1419 -26.4576 60
      vertex 11.4805 -27.7164 60
    endloop
  endfacet
  facet normal 0.427569 -0.903983 0
    outer loop
      vertex 14.1419 -26.4576 60
      vertex 11.4805 -27.7164 8
      vertex 14.1419 -26.4576 8
    endloop
  endfacet
  facet normal -0.671558 -0.740952 0
    outer loop
      vertex -21.2132 -21.2132 8
      vertex -19.0318 -23.1903 60
      vertex -21.2132 -21.2132 60
    endloop
  endfacet
  facet normal -0.671558 -0.740952 -0
    outer loop
      vertex -19.0318 -23.1903 60
      vertex -21.2132 -21.2132 8
      vertex -19.0318 -23.1903 8
    endloop
  endfacet
  facet normal 0.514091 0.857736 -0
    outer loop
      vertex 16.6671 24.9441 8
      vertex 14.1419 26.4576 60
      vertex 16.6671 24.9441 60
    endloop
  endfacet
  facet normal 0.514091 0.857736 0
    outer loop
      vertex 14.1419 26.4576 60
      vertex 16.6671 24.9441 8
      vertex 14.1419 26.4576 8
    endloop
  endfacet
  facet normal -0.146703 -0.989181 0
    outer loop
      vertex -5.85271 -29.4236 8
      vertex -2.94051 -29.8555 60
      vertex -5.85271 -29.4236 60
    endloop
  endfacet
  facet normal -0.146703 -0.989181 -0
    outer loop
      vertex -2.94051 -29.8555 60
      vertex -5.85271 -29.4236 8
      vertex -2.94051 -29.8555 8
    endloop
  endfacet
  facet normal -0.242997 0.970027 0
    outer loop
      vertex -5.85271 29.4236 8
      vertex -8.70854 28.7082 60
      vertex -5.85271 29.4236 60
    endloop
  endfacet
  facet normal -0.242997 0.970027 0
    outer loop
      vertex -8.70854 28.7082 60
      vertex -5.85271 29.4236 8
      vertex -8.70854 28.7082 8
    endloop
  endfacet
  facet normal 0.740952 0.671558 0
    outer loop
      vertex 23.1903 19.0318 60
      vertex 21.2132 21.2132 8
      vertex 21.2132 21.2132 60
    endloop
  endfacet
  facet normal 0.740952 0.671558 0
    outer loop
      vertex 21.2132 21.2132 8
      vertex 23.1903 19.0318 60
      vertex 23.1903 19.0318 8
    endloop
  endfacet
  facet normal -0.970027 -0.242997 0
    outer loop
      vertex -28.7082 -8.70854 8
      vertex -29.4236 -5.85271 60
      vertex -29.4236 -5.85271 8
    endloop
  endfacet
  facet normal -0.970027 -0.242997 0
    outer loop
      vertex -29.4236 -5.85271 60
      vertex -28.7082 -8.70854 8
      vertex -28.7082 -8.70854 60
    endloop
  endfacet
  facet normal 0.857736 0.514091 0
    outer loop
      vertex 26.4576 14.1419 60
      vertex 24.9441 16.6671 8
      vertex 24.9441 16.6671 60
    endloop
  endfacet
  facet normal 0.857736 0.514091 0
    outer loop
      vertex 24.9441 16.6671 8
      vertex 26.4576 14.1419 60
      vertex 26.4576 14.1419 8
    endloop
  endfacet
  facet normal 0.671558 0.740952 -0
    outer loop
      vertex 21.2132 21.2132 8
      vertex 19.0318 23.1903 60
      vertex 21.2132 21.2132 60
    endloop
  endfacet
  facet normal 0.671558 0.740952 0
    outer loop
      vertex 19.0318 23.1903 60
      vertex 21.2132 21.2132 8
      vertex 19.0318 23.1903 8
    endloop
  endfacet
  facet normal -0.941547 -0.336883 0
    outer loop
      vertex -27.7164 -11.4805 8
      vertex -28.7082 -8.70854 60
      vertex -28.7082 -8.70854 8
    endloop
  endfacet
  facet normal -0.941547 -0.336883 0
    outer loop
      vertex -28.7082 -8.70854 60
      vertex -27.7164 -11.4805 8
      vertex -27.7164 -11.4805 60
    endloop
  endfacet
  facet normal 0.336883 -0.941547 0
    outer loop
      vertex 8.70854 -28.7082 8
      vertex 11.4805 -27.7164 60
      vertex 8.70854 -28.7082 60
    endloop
  endfacet
  facet normal 0.336883 -0.941547 0
    outer loop
      vertex 11.4805 -27.7164 60
      vertex 8.70854 -28.7082 8
      vertex 11.4805 -27.7164 8
    endloop
  endfacet
  facet normal 0.941547 0.336883 0
    outer loop
      vertex 28.7082 8.70854 60
      vertex 27.7164 11.4805 8
      vertex 27.7164 11.4805 60
    endloop
  endfacet
  facet normal 0.941547 0.336883 0
    outer loop
      vertex 27.7164 11.4805 8
      vertex 28.7082 8.70854 60
      vertex 28.7082 8.70854 8
    endloop
  endfacet
  facet normal -0.998795 -0.0490819 0
    outer loop
      vertex -29.8555 -2.94051 8
      vertex -30 0 60
      vertex -30 0 8
    endloop
  endfacet
  facet normal -0.998795 -0.0490819 0
    outer loop
      vertex -30 0 60
      vertex -29.8555 -2.94051 8
      vertex -29.8555 -2.94051 60
    endloop
  endfacet
  facet normal -0.0490819 0.998795 0
    outer loop
      vertex 0 30 8
      vertex -2.94051 29.8555 60
      vertex 0 30 60
    endloop
  endfacet
  facet normal -0.0490819 0.998795 0
    outer loop
      vertex -2.94051 29.8555 60
      vertex 0 30 8
      vertex -2.94051 29.8555 8
    endloop
  endfacet
  facet normal 0.903983 -0.427569 0
    outer loop
      vertex 26.4576 -14.1419 60
      vertex 27.7164 -11.4805 8
      vertex 27.7164 -11.4805 60
    endloop
  endfacet
  facet normal 0.903983 -0.427569 0
    outer loop
      vertex 27.7164 -11.4805 8
      vertex 26.4576 -14.1419 60
      vertex 26.4576 -14.1419 8
    endloop
  endfacet
  facet normal 0.595703 0.803204 -0
    outer loop
      vertex 19.0318 23.1903 8
      vertex 16.6671 24.9441 60
      vertex 19.0318 23.1903 60
    endloop
  endfacet
  facet normal 0.595703 0.803204 0
    outer loop
      vertex 16.6671 24.9441 60
      vertex 19.0318 23.1903 8
      vertex 16.6671 24.9441 8
    endloop
  endfacet
  facet normal 0.998795 -0.0490819 0
    outer loop
      vertex 29.8555 -2.94051 60
      vertex 30 0 8
      vertex 30 0 60
    endloop
  endfacet
  facet normal 0.998795 -0.0490819 0
    outer loop
      vertex 30 0 8
      vertex 29.8555 -2.94051 60
      vertex 29.8555 -2.94051 8
    endloop
  endfacet
  facet normal -0.336883 -0.941547 0
    outer loop
      vertex -11.4805 -27.7164 8
      vertex -8.70854 -28.7082 60
      vertex -11.4805 -27.7164 60
    endloop
  endfacet
  facet normal -0.336883 -0.941547 -0
    outer loop
      vertex -8.70854 -28.7082 60
      vertex -11.4805 -27.7164 8
      vertex -8.70854 -28.7082 8
    endloop
  endfacet
  facet normal -0.0490819 -0.998795 0
    outer loop
      vertex -2.94051 -29.8555 8
      vertex 0 -30 60
      vertex -2.94051 -29.8555 60
    endloop
  endfacet
  facet normal -0.0490819 -0.998795 -0
    outer loop
      vertex 0 -30 60
      vertex -2.94051 -29.8555 8
      vertex 0 -30 8
    endloop
  endfacet
  facet normal 0.0490819 -0.998795 0
    outer loop
      vertex 0 -30 8
      vertex 2.94051 -29.8555 60
      vertex 0 -30 60
    endloop
  endfacet
  facet normal 0.0490819 -0.998795 0
    outer loop
      vertex 2.94051 -29.8555 60
      vertex 0 -30 8
      vertex 2.94051 -29.8555 8
    endloop
  endfacet
  facet normal 0.803204 0.595703 0
    outer loop
      vertex 24.9441 16.6671 60
      vertex 23.1903 19.0318 8
      vertex 23.1903 19.0318 60
    endloop
  endfacet
  facet normal 0.803204 0.595703 0
    outer loop
      vertex 23.1903 19.0318 8
      vertex 24.9441 16.6671 60
      vertex 24.9441 16.6671 8
    endloop
  endfacet
  facet normal -0.671558 0.740952 0
    outer loop
      vertex -19.0318 23.1903 8
      vertex -21.2132 21.2132 60
      vertex -19.0318 23.1903 60
    endloop
  endfacet
  facet normal -0.671558 0.740952 0
    outer loop
      vertex -21.2132 21.2132 60
      vertex -19.0318 23.1903 8
      vertex -21.2132 21.2132 8
    endloop
  endfacet
  facet normal 0.146703 0.989181 -0
    outer loop
      vertex 5.85271 29.4236 8
      vertex 2.94051 29.8555 60
      vertex 5.85271 29.4236 60
    endloop
  endfacet
  facet normal 0.146703 0.989181 0
    outer loop
      vertex 2.94051 29.8555 60
      vertex 5.85271 29.4236 8
      vertex 2.94051 29.8555 8
    endloop
  endfacet
  facet normal 0.146703 -0.989181 0
    outer loop
      vertex 2.94051 -29.8555 8
      vertex 5.85271 -29.4236 60
      vertex 2.94051 -29.8555 60
    endloop
  endfacet
  facet normal 0.146703 -0.989181 0
    outer loop
      vertex 5.85271 -29.4236 60
      vertex 2.94051 -29.8555 8
      vertex 5.85271 -29.4236 8
    endloop
  endfacet
  facet normal 0.427569 0.903983 -0
    outer loop
      vertex 14.1419 26.4576 8
      vertex 11.4805 27.7164 60
      vertex 14.1419 26.4576 60
    endloop
  endfacet
  facet normal 0.427569 0.903983 0
    outer loop
      vertex 11.4805 27.7164 60
      vertex 14.1419 26.4576 8
      vertex 11.4805 27.7164 8
    endloop
  endfacet
  facet normal 0.941547 -0.336883 0
    outer loop
      vertex 27.7164 -11.4805 60
      vertex 28.7082 -8.70854 8
      vertex 28.7082 -8.70854 60
    endloop
  endfacet
  facet normal 0.941547 -0.336883 0
    outer loop
      vertex 28.7082 -8.70854 8
      vertex 27.7164 -11.4805 60
      vertex 27.7164 -11.4805 8
    endloop
  endfacet
  facet normal 0.740952 -0.671558 0
    outer loop
      vertex 21.2132 -21.2132 60
      vertex 23.1903 -19.0318 8
      vertex 23.1903 -19.0318 60
    endloop
  endfacet
  facet normal 0.740952 -0.671558 0
    outer loop
      vertex 23.1903 -19.0318 8
      vertex 21.2132 -21.2132 60
      vertex 21.2132 -21.2132 8
    endloop
  endfacet
  facet normal -0.740952 0.671558 0
    outer loop
      vertex -23.1903 19.0318 8
      vertex -21.2132 21.2132 60
      vertex -21.2132 21.2132 8
    endloop
  endfacet
  facet normal -0.740952 0.671558 0
    outer loop
      vertex -21.2132 21.2132 60
      vertex -23.1903 19.0318 8
      vertex -23.1903 19.0318 60
    endloop
  endfacet
  facet normal -0.857736 0.514091 0
    outer loop
      vertex -26.4576 14.1419 8
      vertex -24.9441 16.6671 60
      vertex -24.9441 16.6671 8
    endloop
  endfacet
  facet normal -0.857736 0.514091 0
    outer loop
      vertex -24.9441 16.6671 60
      vertex -26.4576 14.1419 8
      vertex -26.4576 14.1419 60
    endloop
  endfacet
  facet normal 0.903983 0.427569 0
    outer loop
      vertex 27.7164 11.4805 60
      vertex 26.4576 14.1419 8
      vertex 26.4576 14.1419 60
    endloop
  endfacet
  facet normal 0.903983 0.427569 0
    outer loop
      vertex 26.4576 14.1419 8
      vertex 27.7164 11.4805 60
      vertex 27.7164 11.4805 8
    endloop
  endfacet
  facet normal -0.514091 0.857736 0
    outer loop
      vertex -14.1419 26.4576 8
      vertex -16.6671 24.9441 60
      vertex -14.1419 26.4576 60
    endloop
  endfacet
  facet normal -0.514091 0.857736 0
    outer loop
      vertex -16.6671 24.9441 60
      vertex -14.1419 26.4576 8
      vertex -16.6671 24.9441 8
    endloop
  endfacet
  facet normal 0.989181 -0.146703 0
    outer loop
      vertex 29.4236 -5.85271 60
      vertex 29.8555 -2.94051 8
      vertex 29.8555 -2.94051 60
    endloop
  endfacet
  facet normal 0.989181 -0.146703 0
    outer loop
      vertex 29.8555 -2.94051 8
      vertex 29.4236 -5.85271 60
      vertex 29.4236 -5.85271 8
    endloop
  endfacet
  facet normal 0.514091 -0.857736 0
    outer loop
      vertex 14.1419 -26.4576 8
      vertex 16.6671 -24.9441 60
      vertex 14.1419 -26.4576 60
    endloop
  endfacet
  facet normal 0.514091 -0.857736 0
    outer loop
      vertex 16.6671 -24.9441 60
      vertex 14.1419 -26.4576 8
      vertex 16.6671 -24.9441 8
    endloop
  endfacet
  facet normal -0.941547 0.336883 0
    outer loop
      vertex -28.7082 8.70854 8
      vertex -27.7164 11.4805 60
      vertex -27.7164 11.4805 8
    endloop
  endfacet
  facet normal -0.941547 0.336883 0
    outer loop
      vertex -27.7164 11.4805 60
      vertex -28.7082 8.70854 8
      vertex -28.7082 8.70854 60
    endloop
  endfacet
  facet normal 0.336883 0.941547 -0
    outer loop
      vertex 11.4805 27.7164 8
      vertex 8.70854 28.7082 60
      vertex 11.4805 27.7164 60
    endloop
  endfacet
  facet normal 0.336883 0.941547 0
    outer loop
      vertex 8.70854 28.7082 60
      vertex 11.4805 27.7164 8
      vertex 8.70854 28.7082 8
    endloop
  endfacet
  facet normal 0.242997 0.970027 -0
    outer loop
      vertex 8.70854 28.7082 8
      vertex 5.85271 29.4236 60
      vertex 8.70854 28.7082 60
    endloop
  endfacet
  facet normal 0.242997 0.970027 0
    outer loop
      vertex 5.85271 29.4236 60
      vertex 8.70854 28.7082 8
      vertex 5.85271 29.4236 8
    endloop
  endfacet
  facet normal -0.427569 0.903983 0
    outer loop
      vertex -11.4805 27.7164 8
      vertex -14.1419 26.4576 60
      vertex -11.4805 27.7164 60
    endloop
  endfacet
  facet normal -0.427569 0.903983 0
    outer loop
      vertex -14.1419 26.4576 60
      vertex -11.4805 27.7164 8
      vertex -14.1419 26.4576 8
    endloop
  endfacet
  facet normal -0.595703 0.803204 0
    outer loop
      vertex -16.6671 24.9441 8
      vertex -19.0318 23.1903 60
      vertex -16.6671 24.9441 60
    endloop
  endfacet
  facet normal -0.595703 0.803204 0
    outer loop
      vertex -19.0318 23.1903 60
      vertex -16.6671 24.9441 8
      vertex -19.0318 23.1903 8
    endloop
  endfacet
  facet normal -0.146703 0.989181 0
    outer loop
      vertex -2.94051 29.8555 8
      vertex -5.85271 29.4236 60
      vertex -2.94051 29.8555 60
    endloop
  endfacet
  facet normal -0.146703 0.989181 0
    outer loop
      vertex -5.85271 29.4236 60
      vertex -2.94051 29.8555 8
      vertex -5.85271 29.4236 8
    endloop
  endfacet
  facet normal 0.242997 -0.970027 0
    outer loop
      vertex 5.85271 -29.4236 8
      vertex 8.70854 -28.7082 60
      vertex 5.85271 -29.4236 60
    endloop
  endfacet
  facet normal 0.242997 -0.970027 0
    outer loop
      vertex 8.70854 -28.7082 60
      vertex 5.85271 -29.4236 8
      vertex 8.70854 -28.7082 8
    endloop
  endfacet
  facet normal -0.903983 -0.427569 0
    outer loop
      vertex -26.4576 -14.1419 8
      vertex -27.7164 -11.4805 60
      vertex -27.7164 -11.4805 8
    endloop
  endfacet
  facet normal -0.903983 -0.427569 0
    outer loop
      vertex -27.7164 -11.4805 60
      vertex -26.4576 -14.1419 8
      vertex -26.4576 -14.1419 60
    endloop
  endfacet
  facet normal -0.970027 0.242997 0
    outer loop
      vertex -29.4236 5.85271 8
      vertex -28.7082 8.70854 60
      vertex -28.7082 8.70854 8
    endloop
  endfacet
  facet normal -0.970027 0.242997 0
    outer loop
      vertex -28.7082 8.70854 60
      vertex -29.4236 5.85271 8
      vertex -29.4236 5.85271 60
    endloop
  endfacet
  facet normal -0.740952 -0.671558 0
    outer loop
      vertex -21.2132 -21.2132 8
      vertex -23.1903 -19.0318 60
      vertex -23.1903 -19.0318 8
    endloop
  endfacet
  facet normal -0.740952 -0.671558 0
    outer loop
      vertex -23.1903 -19.0318 60
      vertex -21.2132 -21.2132 8
      vertex -21.2132 -21.2132 60
    endloop
  endfacet
  facet normal -0.336883 0.941547 0
    outer loop
      vertex -8.70854 28.7082 8
      vertex -11.4805 27.7164 60
      vertex -8.70854 28.7082 60
    endloop
  endfacet
  facet normal -0.336883 0.941547 0
    outer loop
      vertex -11.4805 27.7164 60
      vertex -8.70854 28.7082 8
      vertex -11.4805 27.7164 8
    endloop
  endfacet
  facet normal -0.989181 0.146703 0
    outer loop
      vertex -29.8555 2.94051 8
      vertex -29.4236 5.85271 60
      vertex -29.4236 5.85271 8
    endloop
  endfacet
  facet normal -0.989181 0.146703 0
    outer loop
      vertex -29.4236 5.85271 60
      vertex -29.8555 2.94051 8
      vertex -29.8555 2.94051 60
    endloop
  endfacet
  facet normal -0.998795 0.0490819 0
    outer loop
      vertex -30 0 8
      vertex -29.8555 2.94051 60
      vertex -29.8555 2.94051 8
    endloop
  endfacet
  facet normal -0.998795 0.0490819 0
    outer loop
      vertex -29.8555 2.94051 60
      vertex -30 0 8
      vertex -30 0 60
    endloop
  endfacet
  facet normal -0.989181 -0.146703 0
    outer loop
      vertex -29.4236 -5.85271 8
      vertex -29.8555 -2.94051 60
      vertex -29.8555 -2.94051 8
    endloop
  endfacet
  facet normal -0.989181 -0.146703 0
    outer loop
      vertex -29.8555 -2.94051 60
      vertex -29.4236 -5.85271 8
      vertex -29.4236 -5.85271 60
    endloop
  endfacet
  facet normal -0.803204 0.595703 0
    outer loop
      vertex -24.9441 16.6671 8
      vertex -23.1903 19.0318 60
      vertex -23.1903 19.0318 8
    endloop
  endfacet
  facet normal -0.803204 0.595703 0
    outer loop
      vertex -23.1903 19.0318 60
      vertex -24.9441 16.6671 8
      vertex -24.9441 16.6671 60
    endloop
  endfacet
  facet normal 0.970027 -0.242997 0
    outer loop
      vertex 28.7082 -8.70854 60
      vertex 29.4236 -5.85271 8
      vertex 29.4236 -5.85271 60
    endloop
  endfacet
  facet normal 0.970027 -0.242997 0
    outer loop
      vertex 29.4236 -5.85271 8
      vertex 28.7082 -8.70854 60
      vertex 28.7082 -8.70854 8
    endloop
  endfacet
  facet normal -0.803204 -0.595703 0
    outer loop
      vertex -23.1903 -19.0318 8
      vertex -24.9441 -16.6671 60
      vertex -24.9441 -16.6671 8
    endloop
  endfacet
  facet normal -0.803204 -0.595703 0
    outer loop
      vertex -24.9441 -16.6671 60
      vertex -23.1903 -19.0318 8
      vertex -23.1903 -19.0318 60
    endloop
  endfacet
  facet normal 0.0490819 0.998795 -0
    outer loop
      vertex 2.94051 29.8555 8
      vertex 0 30 60
      vertex 2.94051 29.8555 60
    endloop
  endfacet
  facet normal 0.0490819 0.998795 0
    outer loop
      vertex 0 30 60
      vertex 2.94051 29.8555 8
      vertex 0 30 8
    endloop
  endfacet
  facet normal -0.514091 -0.857736 0
    outer loop
      vertex -16.6671 -24.9441 8
      vertex -14.1419 -26.4576 60
      vertex -16.6671 -24.9441 60
    endloop
  endfacet
  facet normal -0.514091 -0.857736 -0
    outer loop
      vertex -14.1419 -26.4576 60
      vertex -16.6671 -24.9441 8
      vertex -14.1419 -26.4576 8
    endloop
  endfacet
  facet normal -0.595703 -0.803204 0
    outer loop
      vertex -19.0318 -23.1903 8
      vertex -16.6671 -24.9441 60
      vertex -19.0318 -23.1903 60
    endloop
  endfacet
  facet normal -0.595703 -0.803204 -0
    outer loop
      vertex -16.6671 -24.9441 60
      vertex -19.0318 -23.1903 8
      vertex -16.6671 -24.9441 8
    endloop
  endfacet
  facet normal 0.857736 -0.514091 0
    outer loop
      vertex 24.9441 -16.6671 60
      vertex 26.4576 -14.1419 8
      vertex 26.4576 -14.1419 60
    endloop
  endfacet
  facet normal 0.857736 -0.514091 0
    outer loop
      vertex 26.4576 -14.1419 8
      vertex 24.9441 -16.6671 60
      vertex 24.9441 -16.6671 8
    endloop
  endfacet
  facet normal -0.427569 -0.903983 0
    outer loop
      vertex -14.1419 -26.4576 8
      vertex -11.4805 -27.7164 60
      vertex -14.1419 -26.4576 60
    endloop
  endfacet
  facet normal -0.427569 -0.903983 -0
    outer loop
      vertex -11.4805 -27.7164 60
      vertex -14.1419 -26.4576 8
      vertex -11.4805 -27.7164 8
    endloop
  endfacet
  facet normal 0.803204 -0.595703 0
    outer loop
      vertex 23.1903 -19.0318 60
      vertex 24.9441 -16.6671 8
      vertex 24.9441 -16.6671 60
    endloop
  endfacet
  facet normal 0.803204 -0.595703 0
    outer loop
      vertex 24.9441 -16.6671 8
      vertex 23.1903 -19.0318 60
      vertex 23.1903 -19.0318 8
    endloop
  endfacet
  facet normal -0.242997 -0.970027 0
    outer loop
      vertex -8.70854 -28.7082 8
      vertex -5.85271 -29.4236 60
      vertex -8.70854 -28.7082 60
    endloop
  endfacet
  facet normal -0.242997 -0.970027 -0
    outer loop
      vertex -5.85271 -29.4236 60
      vertex -8.70854 -28.7082 8
      vertex -5.85271 -29.4236 8
    endloop
  endfacet
  facet normal -0.857736 -0.514091 0
    outer loop
      vertex -24.9441 -16.6671 8
      vertex -26.4576 -14.1419 60
      vertex -26.4576 -14.1419 8
    endloop
  endfacet
  facet normal -0.857736 -0.514091 0
    outer loop
      vertex -26.4576 -14.1419 60
      vertex -24.9441 -16.6671 8
      vertex -24.9441 -16.6671 60
    endloop
  endfacet
  facet normal -0.903983 0.427569 0
    outer loop
      vertex -27.7164 11.4805 8
      vertex -26.4576 14.1419 60
      vertex -26.4576 14.1419 8
    endloop
  endfacet
  facet normal -0.903983 0.427569 0
    outer loop
      vertex -26.4576 14.1419 60
      vertex -27.7164 11.4805 8
      vertex -27.7164 11.4805 60
    endloop
  endfacet
  facet normal 0.671558 -0.740952 0
    outer loop
      vertex 19.0318 -23.1903 8
      vertex 21.2132 -21.2132 60
      vertex 19.0318 -23.1903 60
    endloop
  endfacet
  facet normal 0.671558 -0.740952 0
    outer loop
      vertex 21.2132 -21.2132 60
      vertex 19.0318 -23.1903 8
      vertex 21.2132 -21.2132 8
    endloop
  endfacet
  facet normal 0 0 1
    outer loop
      vertex 29.8555 2.94051 60
      vertex 29.8555 -2.94051 60
      vertex 30 0 60
    endloop
  endfacet
  facet normal 0 0 1
    outer loop
      vertex 29.4236 5.85271 60
      vertex 29.8555 -2.94051 60
      vertex 29.8555 2.94051 60
    endloop
  endfacet
  facet normal 0 0 1
    outer loop
      vertex 29.4236 5.85271 60
      vertex 29.4236 -5.85271 60
      vertex 29.8555 -2.94051 60
    endloop
  endfacet
  facet normal 0 0 1
    outer loop
      vertex 28.7082 8.70854 60
      vertex 29.4236 -5.85271 60
      vertex 29.4236 5.85271 60
    endloop
  endfacet
  facet normal 0 0 1
    outer loop
      vertex 28.7082 8.70854 60
      vertex 28.7082 -8.70854 60
      vertex 29.4236 -5.85271 60
    endloop
  endfacet
  facet normal 0 0 1
    outer loop
      vertex 27.7164 11.4805 60
      vertex 28.7082 -8.70854 60
      vertex 28.7082 8.70854 60
    endloop
  endfacet
  facet normal 0 0 1
    outer loop
      vertex 27.7164 11.4805 60
      vertex 27.7164 -11.4805 60
      vertex 28.7082 -8.70854 60
    endloop
  endfacet
  facet normal 0 0 1
    outer loop
      vertex 26.4576 14.1419 60
      vertex 27.7164 -11.4805 60
      vertex 27.7164 11.4805 60
    endloop
  endfacet
  facet normal 0 0 1
    outer loop
      vertex 26.4576 14.1419 60
      vertex 26.4576 -14.1419 60
      vertex 27.7164 -11.4805 60
    endloop
  endfacet
  facet normal 0 0 1
    outer loop
      vertex 24.9441 16.6671 60
      vertex 26.4576 -14.1419 60
      vertex 26.4576 14.1419 60
    endloop
  endfacet
  facet normal 0 0 1
    outer loop
      vertex 24.9441 16.6671 60
      vertex 24.9441 -16.6671 60
      vertex 26.4576 -14.1419 60
    endloop
  endfacet
  facet normal 0 0 1
    outer loop
      vertex 23.1903 19.0318 60
      vertex 24.9441 -16.6671 60
      vertex 24.9441 16.6671 60
    endloop
  endfacet
  facet normal 0 0 1
    outer loop
      vertex 23.1903 19.0318 60
      vertex 23.1903 -19.0318 60
      vertex 24.9441 -16.6671 60
    endloop
  endfacet
  facet normal 0 0 1
    outer loop
      vertex 21.2132 21.2132 60
      vertex 23.1903 -19.0318 60
      vertex 23.1903 19.0318 60
    endloop
  endfacet
  facet normal 0 0 1
    outer loop
      vertex 21.2132 21.2132 60
      vertex 21.2132 -21.2132 60
      vertex 23.1903 -19.0318 60
    endloop
  endfacet
  facet normal 0 0 1
    outer loop
      vertex 19.0318 23.1903 60
      vertex 21.2132 -21.2132 60
      vertex 21.2132 21.2132 60
    endloop
  endfacet
  facet normal 0 0 1
    outer loop
      vertex 19.0318 23.1903 60
      vertex 19.0318 -23.1903 60
      vertex 21.2132 -21.2132 60
    endloop
  endfacet
  facet normal 0 0 1
    outer loop
      vertex 16.6671 24.9441 60
      vertex 19.0318 -23.1903 60
      vertex 19.0318 23.1903 60
    endloop
  endfacet
  facet normal 0 0 1
    outer loop
      vertex 16.6671 24.9441 60
      vertex 16.6671 -24.9441 60
      vertex 19.0318 -23.1903 60
    endloop
  endfacet
  facet normal 0 0 1
    outer loop
      vertex 14.1419 26.4576 60
      vertex 16.6671 -24.9441 60
      vertex 16.6671 24.9441 60
    endloop
  endfacet
  facet normal 0 0 1
    outer loop
      vertex 14.1419 26.4576 60
      vertex 14.1419 -26.4576 60
      vertex 16.6671 -24.9441 60
    endloop
  endfacet
  facet normal 0 0 1
    outer loop
      vertex 11.4805 27.7164 60
      vertex 14.1419 -26.4576 60
      vertex 14.1419 26.4576 60
    endloop
  endfacet
  facet normal 0 0 1
    outer loop
      vertex 11.4805 27.7164 60
      vertex 11.4805 -27.7164 60
      vertex 14.1419 -26.4576 60
    endloop
  endfacet
  facet normal 0 0 1
    outer loop
      vertex 8.70854 28.7082 60
      vertex 11.4805 -27.7164 60
      vertex 11.4805 27.7164 60
    endloop
  endfacet
  facet normal 0 0 1
    outer loop
      vertex 8.70854 28.7082 60
      vertex 8.70854 -28.7082 60
      vertex 11.4805 -27.7164 60
    endloop
  endfacet
  facet normal 0 0 1
    outer loop
      vertex 5.85271 29.4236 60
      vertex 8.70854 -28.7082 60
      vertex 8.70854 28.7082 60
    endloop
  endfacet
  facet normal 0 0 1
    outer loop
      vertex 5.85271 29.4236 60
      vertex 5.85271 -29.4236 60
      vertex 8.70854 -28.7082 60
    endloop
  endfacet
  facet normal 0 0 1
    outer loop
      vertex 2.94051 29.8555 60
      vertex 5.85271 -29.4236 60
      vertex 5.85271 29.4236 60
    endloop
  endfacet
  facet normal 0 0 1
    outer loop
      vertex 2.94051 29.8555 60
      vertex 2.94051 -29.8555 60
      vertex 5.85271 -29.4236 60
    endloop
  endfacet
  facet normal 0 0 1
    outer loop
      vertex 0 30 60
      vertex 2.94051 -29.8555 60
      vertex 2.94051 29.8555 60
    endloop
  endfacet
  facet normal 0 0 1
    outer loop
      vertex 0 30 60
      vertex 0 -30 60
      vertex 2.94051 -29.8555 60
    endloop
  endfacet
  facet normal -0 0 1
    outer loop
      vertex -2.94051 29.8555 60
      vertex 0 -30 60
      vertex 0 30 60
    endloop
  endfacet
  facet normal 0 0 1
    outer loop
      vertex -2.94051 29.8555 60
      vertex -2.94051 -29.8555 60
      vertex 0 -30 60
    endloop
  endfacet
  facet normal -0 0 1
    outer loop
      vertex -5.85271 29.4236 60
      vertex -2.94051 -29.8555 60
      vertex -2.94051 29.8555 60
    endloop
  endfacet
  facet normal 0 0 1
    outer loop
      vertex -5.85271 29.4236 60
      vertex -5.85271 -29.4236 60
      vertex -2.94051 -29.8555 60
    endloop
  endfacet
  facet normal -0 0 1
    outer loop
      vertex -8.70854 28.7082 60
      vertex -5.85271 -29.4236 60
      vertex -5.85271 29.4236 60
    endloop
  endfacet
  facet normal 0 0 1
    outer loop
      vertex -8.70854 28.7082 60
      vertex -8.70854 -28.7082 60
      vertex -5.85271 -29.4236 60
    endloop
  endfacet
  facet normal -0 0 1
    outer loop
      vertex -11.4805 27.7164 60
      vertex -8.70854 -28.7082 60
      vertex -8.70854 28.7082 60
    endloop
  endfacet
  facet normal 0 0 1
    outer loop
      vertex -11.4805 27.7164 60
      vertex -11.4805 -27.7164 60
      vertex -8.70854 -28.7082 60
    endloop
  endfacet
  facet normal -0 0 1
    outer loop
      vertex -14.1419 26.4576 60
      vertex -11.4805 -27.7164 60
      vertex -11.4805 27.7164 60
    endloop
  endfacet
  facet normal 0 0 1
    outer loop
      vertex -14.1419 26.4576 60
      vertex -14.1419 -26.4576 60
      vertex -11.4805 -27.7164 60
    endloop
  endfacet
  facet normal -0 0 1
    outer loop
      vertex -16.6671 24.9441 60
      vertex -14.1419 -26.4576 60
      vertex -14.1419 26.4576 60
    endloop
  endfacet
  facet normal 0 0 1
    outer loop
      vertex -16.6671 24.9441 60
      vertex -16.6671 -24.9441 60
      vertex -14.1419 -26.4576 60
    endloop
  endfacet
  facet normal -0 0 1
    outer loop
      vertex -19.0318 23.1903 60
      vertex -16.6671 -24.9441 60
      vertex -16.6671 24.9441 60
    endloop
  endfacet
  facet normal 0 0 1
    outer loop
      vertex -19.0318 23.1903 60
      vertex -19.0318 -23.1903 60
      vertex -16.6671 -24.9441 60
    endloop
  endfacet
  facet normal -0 0 1
    outer loop
      vertex -21.2132 21.2132 60
      vertex -19.0318 -23.1903 60
      vertex -19.0318 23.1903 60
    endloop
  endfacet
  facet normal 0 0 1
    outer loop
      vertex -21.2132 21.2132 60
      vertex -21.2132 -21.2132 60
      vertex -19.0318 -23.1903 60
    endloop
  endfacet
  facet normal -0 0 1
    outer loop
      vertex -23.1903 19.0318 60
      vertex -21.2132 -21.2132 60
      vertex -21.2132 21.2132 60
    endloop
  endfacet
  facet normal 0 0 1
    outer loop
      vertex -23.1903 19.0318 60
      vertex -23.1903 -19.0318 60
      vertex -21.2132 -21.2132 60
    endloop
  endfacet
  facet normal -0 0 1
    outer loop
      vertex -24.9441 16.6671 60
      vertex -23.1903 -19.0318 60
      vertex -23.1903 19.0318 60
    endloop
  endfacet
  facet normal 0 0 1
    outer loop
      vertex -24.9441 16.6671 60
      vertex -24.9441 -16.6671 60
      vertex -23.1903 -19.0318 60
    endloop
  endfacet
  facet normal -0 0 1
    outer loop
      vertex -26.4576 14.1419 60
      vertex -24.9441 -16.6671 60
      vertex -24.9441 16.6671 60
    endloop
  endfacet
  facet normal 0 0 1
    outer loop
      vertex -26.4576 14.1419 60
      vertex -26.4576 -14.1419 60
      vertex -24.9441 -16.6671 60
    endloop
  endfacet
  facet normal -0 0 1
    outer loop
      vertex -27.7164 11.4805 60
      vertex -26.4576 -14.1419 60
      vertex -26.4576 14.1419 60
    endloop
  endfacet
  facet normal 0 0 1
    outer loop
      vertex -27.7164 11.4805 60
      vertex -27.7164 -11.4805 60
      vertex -26.4576 -14.1419 60
    endloop
  endfacet
  facet normal -0 0 1
    outer loop
      vertex -28.7082 8.70854 60
      vertex -27.7164 -11.4805 60
      vertex -27.7164 11.4805 60
    endloop
  endfacet
  facet normal 0 0 1
    outer loop
      vertex -28.7082 8.70854 60
      vertex -28.7082 -8.70854 60
      vertex -27.7164 -11.4805 60
    endloop
  endfacet
  facet normal -0 0 1
    outer loop
      vertex -29.4236 5.85271 60
      vertex -28.7082 -8.70854 60
      vertex -28.7082 8.70854 60
    endloop
  endfacet
  facet normal 0 0 1
    outer loop
      vertex -29.4236 5.85271 60
      vertex -29.4236 -5.85271 60
      vertex -28.7082 -8.70854 60
    endloop
  endfacet
  facet normal -0 0 1
    outer loop
      vertex -29.8555 2.94051 60
      vertex -29.4236 -5.85271 60
      vertex -29.4236 5.85271 60
    endloop
  endfacet
  facet normal 0 0 1
    outer loop
      vertex -29.8555 2.94051 60
      vertex -29.8555 -2.94051 60
      vertex -29.4236 -5.85271 60
    endloop
  endfacet
  facet normal 0 -0 1
    outer loop
      vertex -29.8555 -2.94051 60
      vertex -29.8555 2.94051 60
      vertex -30 0 60
    endloop
  endfacet
endsolid OpenSCAD_Model
