solid OpenSCAD_Model
  facet normal 1 -0 0
    outer loop
      vertex 30 0 40
      vertex 30 30 0
      vertex 30 30 40
    endloop
  endfacet
  facet normal 1 0 0
    outer loop
      vertex 30 30 0
      vertex 30 0 40
      vertex 30 0 0
    endloop
  endfacet
  facet normal 0 0 1
    outer loop
      vertex 30 30 40
      vertex 15 0 40
      vertex 30 0 40
    endloop
  endfacet
  facet normal 0 0 1
    outer loop
      vertex 0 15 40
      vertex 30 30 40
      vertex 0 30 40
    endloop
  endfacet
  facet normal 0 0 1
    outer loop
      vertex 30 30 40
      vertex 0 15 40
      vertex 15 0 40
    endloop
  endfacet
  facet normal 0 0 1
    outer loop
      vertex -15 -15 40
      vertex 15 0 40
      vertex 0 15 40
    endloop
  endfacet
  facet normal 0 0 1
    outer loop
      vertex -15 -15 40
      vertex 0 15 40
      vertex -15 15 40
    endloop
  endfacet
  facet normal 0 0 1
    outer loop
      vertex 15 0 40
      vertex -15 -15 40
      vertex 15 -15 40
    endloop
  endfacet
  facet normal 0 0 -1
    outer loop
      vertex -15 -15 0
      vertex 15 0 0
      vertex 15 -15 0
    endloop
  endfacet
  facet normal -0 0 -1
    outer loop
      vertex 15 0 0
      vertex -15 -15 0
      vertex 0 15 0
    endloop
  endfacet
  facet normal -0 0 -1
    outer loop
      vertex 0 15 0
      vertex -15 -15 0
      vertex -15 15 0
    endloop
  endfacet
  facet normal 0 0 -1
    outer loop
      vertex 15 0 0
      vertex 30 30 0
      vertex 30 0 0
    endloop
  endfacet
  facet normal 0 0 -1
    outer loop
      vertex 0 15 0
      vertex 30 30 0
      vertex 15 0 0
    endloop
  endfacet
  facet normal -0 0 -1
    outer loop
      vertex 30 30 0
      vertex 0 15 0
      vertex 0 30 0
    endloop
  endfacet
  facet normal -1 0 0
    outer loop
      vertex 0 15 0
      vertex 0 30 40
      vertex 0 30 0
    endloop
  endfacet
  facet normal -1 -0 0
    outer loop
      vertex 0 30 40
      vertex 0 15 0
      vertex 0 15 40
    endloop
  endfacet
  facet normal 0 1 -0
    outer loop
      vertex 30 30 0
      vertex 0 30 40
      vertex 30 30 40
    endloop
  endfacet
  facet normal 0 1 0
    outer loop
      vertex 0 30 40
      vertex 30 30 0
      vertex 0 30 0
    endloop
  endfacet
  facet normal 0 -1 0
    outer loop
      vertex 15 0 0
      vertex 30 0 40
      vertex 15 0 40
    endloop
  endfacet
  facet normal 0 -1 -0
    outer loop
      vertex 30 0 40
      vertex 15 0 0
      vertex 30 0 0
    endloop
  endfacet
  facet normal 1 -0 0
    outer loop
      vertex 15 -15 40
      vertex 15 0 0
      vertex 15 0 40
    endloop
  endfacet
  facet normal 1 0 0
    outer loop
      vertex 15 0 0
      vertex 15 -15 40
      vertex 15 -15 0
    endloop
  endfacet
  facet normal -1 0 0
    outer loop
      vertex -15 -15 0
      vertex -15 15 40
      vertex -15 15 0
    endloop
  endfacet
  facet normal -1 -0 0
    outer loop
      vertex -15 15 40
      vertex -15 -15 0
      vertex -15 -15 40
    endloop
  endfacet
  facet normal 0 1 -0
    outer loop
      vertex 0 15 0
      vertex -15 15 40
      vertex 0 15 40
    endloop
  endfacet
  facet normal 0 1 0
    outer loop
      vertex -15 15 40
      vertex 0 15 0
      vertex -15 15 0
    endloop
  endfacet
  facet normal 0 -1 0
    outer loop
      vertex -15 -15 0
      vertex 15 -15 40
      vertex -15 -15 40
    endloop
  endfacet
  facet normal 0 -1 -0
    outer loop
      vertex 15 -15 40
      vertex -15 -15 0
      vertex 15 -15 0
    endloop
  endfacet
endsolid OpenSCAD_Model
