solid OpenSCAD_Model
  facet normal 1 -0 0
    outer loop
      vertex 24 0 22.1
      vertex 24 24 0
      vertex 24 24 22.1
    endloop
  endfacet
  facet normal 1 0 0
    outer loop
      vertex 24 24 0
      vertex 24 0 22.1
      vertex 24 0 0
    endloop
  endfacet
  facet normal 0 0 1
    outer loop
      vertex 24 24 22.1
      vertex 12 0 22.1
      vertex 24 0 22.1
    endloop
  endfacet
  facet normal 0 0 1
    outer loop
      vertex 0 12 22.1
      vertex 24 24 22.1
      vertex 0 24 22.1
    endloop
  endfacet
  facet normal 0 0 1
    outer loop
      vertex 24 24 22.1
      vertex 0 12 22.1
      vertex 12 0 22.1
    endloop
  endfacet
  facet normal 0 0 1
    outer loop
      vertex -12 -12 22.1
      vertex 12 0 22.1
      vertex 0 12 22.1
    endloop
  endfacet
  facet normal 0 0 1
    outer loop
      vertex -12 -12 22.1
      vertex 0 12 22.1
      vertex -12 12 22.1
    endloop
  endfacet
  facet normal 0 0 1
    outer loop
      vertex 12 0 22.1
      vertex -12 -12 22.1
      vertex 12 -12 22.1
    endloop
  endfacet
  facet normal 0 0 -1
    outer loop
      vertex -12 -12 0
      vertex 12 0 0
      vertex 12 -12 0
    endloop
  endfacet
  facet normal -0 0 -1
    outer loop
      vertex 12 0 0
      vertex -12 -12 0
      vertex 0 12 0
    endloop
  endfacet
  facet normal -0 0 -1
    outer loop
      vertex 0 12 0
      vertex -12 -12 0
      vertex -12 12 0
    endloop
  endfacet
  facet normal 0 0 -1
    outer loop
      vertex 12 0 0
      vertex 24 24 0
      vertex 24 0 0
    endloop
  endfacet
  facet normal 0 0 -1
    outer loop
      vertex 0 12 0
      vertex 24 24 0
      vertex 12 0 0
    endloop
  endfacet
  facet normal -0 0 -1
    outer loop
      vertex 24 24 0
      vertex 0 12 0
      vertex 0 24 0
    endloop
  endfacet
  facet normal -1 0 0
    outer loop
      vertex 0 12 0
      vertex 0 24 22.1
      vertex 0 24 0
    endloop
  endfacet
  facet normal -1 -0 0
    outer loop
      vertex 0 24 22.1
      vertex 0 12 0
      vertex 0 12 22.1
    endloop
  endfacet
  facet normal 0 1 -0
    outer loop
      vertex 24 24 0
      vertex 0 24 22.1
      vertex 24 24 22.1
    endloop
  endfacet
  facet normal 0 1 0
    outer loop
      vertex 0 24 22.1
      vertex 24 24 0
      vertex 0 24 0
    endloop
  endfacet
  facet normal 0 -1 0
    outer loop
      vertex 12 0 0
      vertex 24 0 22.1
      vertex 12 0 22.1
    endloop
  endfacet
  facet normal 0 -1 -0
    outer loop
      vertex 24 0 22.1
      vertex 12 0 0
      vertex 24 0 0
    endloop
  endfacet
  facet normal 1 -0 0
    outer loop
      vertex 12 -12 22.1
      vertex 12 0 0
      vertex 12 0 22.1
    endloop
  endfacet
  facet normal 1 0 0
    outer loop
      vertex 12 0 0
      vertex 12 -12 22.1
      vertex 12 -12 0
    endloop
  endfacet
  facet normal -1 0 0
    outer loop
      vertex -12 -12 0
      vertex -12 12 22.1
      vertex -12 12 0
    endloop
  endfacet
  facet normal -1 -0 0
    outer loop
      vertex -12 12 22.1
      vertex -12 -12 0
      vertex -12 -12 22.1
    endloop
  endfacet
  facet normal 0 1 -0
    outer loop
      vertex 0 12 0
      vertex -12 12 22.1
      vertex 0 12 22.1
    endloop
  endfacet
  facet normal 0 1 0
    outer loop
      vertex -12 12 22.1
      vertex 0 12 0
      vertex -12 12 0
    endloop
  endfacet
  facet normal 0 -1 0
    outer loop
      vertex -12 -12 0
      vertex 12 -12 22.1
      vertex -12 -12 22.1
    endloop
  endfacet
  facet normal 0 -1 -0
    outer loop
      vertex 12 -12 22.1
      vertex -12 -12 0
      vertex 12 -12 0
    endloop
  endfacet
endsolid OpenSCAD_Model
