solid OpenSCAD_Model
  facet normal 0.998796 0.0490649 0
    outer loop
      vertex 10 0 12
      vertex 9.95185 0.980171 0
      vertex 9.95185 0.980171 12
    endloop
  endfacet
  facet normal 0.998796 0.0490649 0
    outer loop
      vertex 9.95185 0.980171 0
      vertex 10 0 12
      vertex 10 0 0
    endloop
  endfacet
  facet normal 0.989176 0.146736 0
    outer loop
      vertex 9.95185 0.980171 12
      vertex 9.80785 1.9509 0
      vertex 9.80785 1.9509 12
    endloop
  endfacet
  facet normal 0.989176 0.146736 0
    outer loop
      vertex 9.80785 1.9509 0
      vertex 9.95185 0.980171 12
      vertex 9.95185 0.980171 0
    endloop
  endfacet
  facet normal 0.970032 0.242979 0
    outer loop
      vertex 9.80785 1.9509 12
      vertex 9.5694 2.90285 0
      vertex 9.5694 2.90285 12
    endloop
  endfacet
  facet normal 0.970032 0.242979 0
    outer loop
      vertex 9.5694 2.90285 0
      vertex 9.80785 1.9509 12
      vertex 9.80785 1.9509 0
    endloop
  endfacet
  facet normal 0.941546 0.336885 0
    outer loop
      vertex 9.5694 2.90285 12
      vertex 9.2388 3.82683 0
      vertex 9.2388 3.82683 12
    endloop
  endfacet
  facet normal 0.941546 0.336885 0
    outer loop
      vertex 9.2388 3.82683 0
      vertex 9.5694 2.90285 12
      vertex 9.5694 2.90285 0
    endloop
  endfacet
  facet normal 0.903988 0.427558 0
    outer loop
      vertex 9.2388 3.82683 12
      vertex 8.81921 4.71397 0
      vertex 8.81921 4.71397 12
    endloop
  endfacet
  facet normal 0.903988 0.427558 0
    outer loop
      vertex 8.81921 4.71397 0
      vertex 9.2388 3.82683 12
      vertex 9.2388 3.82683 0
    endloop
  endfacet
  facet normal 0.85773 0.5141 0
    outer loop
      vertex 8.81921 4.71397 12
      vertex 8.3147 5.5557 0
      vertex 8.3147 5.5557 12
    endloop
  endfacet
  facet normal 0.85773 0.5141 0
    outer loop
      vertex 8.3147 5.5557 0
      vertex 8.81921 4.71397 12
      vertex 8.81921 4.71397 0
    endloop
  endfacet
  facet normal 0.803203 0.595705 0
    outer loop
      vertex 8.3147 5.5557 12
      vertex 7.7301 6.34393 0
      vertex 7.7301 6.34393 12
    endloop
  endfacet
  facet normal 0.803203 0.595705 0
    outer loop
      vertex 7.7301 6.34393 0
      vertex 8.3147 5.5557 12
      vertex 8.3147 5.5557 0
    endloop
  endfacet
  facet normal 0.740957 0.671553 0
    outer loop
      vertex 7.7301 6.34393 12
      vertex 7.07107 7.07107 0
      vertex 7.07107 7.07107 12
    endloop
  endfacet
  facet normal 0.740957 0.671553 0
    outer loop
      vertex 7.07107 7.07107 0
      vertex 7.7301 6.34393 12
      vertex 7.7301 6.34393 0
    endloop
  endfacet
  facet normal 0.671553 0.740957 -0
    outer loop
      vertex 7.07107 7.07107 0
      vertex 6.34393 7.7301 12
      vertex 7.07107 7.07107 12
    endloop
  endfacet
  facet normal 0.671553 0.740957 0
    outer loop
      vertex 6.34393 7.7301 12
      vertex 7.07107 7.07107 0
      vertex 6.34393 7.7301 0
    endloop
  endfacet
  facet normal 0.595705 0.803203 -0
    outer loop
      vertex 6.34393 7.7301 0
      vertex 5.5557 8.3147 12
      vertex 6.34393 7.7301 12
    endloop
  endfacet
  facet normal 0.595705 0.803203 0
    outer loop
      vertex 5.5557 8.3147 12
      vertex 6.34393 7.7301 0
      vertex 5.5557 8.3147 0
    endloop
  endfacet
  facet normal 0.5141 0.85773 -0
    outer loop
      vertex 5.5557 8.3147 0
      vertex 4.71397 8.81921 12
      vertex 5.5557 8.3147 12
    endloop
  endfacet
  facet normal 0.5141 0.85773 0
    outer loop
      vertex 4.71397 8.81921 12
      vertex 5.5557 8.3147 0
      vertex 4.71397 8.81921 0
    endloop
  endfacet
  facet normal 0.427558 0.903988 -0
    outer loop
      vertex 4.71397 8.81921 0
      vertex 3.82683 9.2388 12
      vertex 4.71397 8.81921 12
    endloop
  endfacet
  facet normal 0.427558 0.903988 0
    outer loop
      vertex 3.82683 9.2388 12
      vertex 4.71397 8.81921 0
      vertex 3.82683 9.2388 0
    endloop
  endfacet
  facet normal 0.336885 0.941546 -0
    outer loop
      vertex 3.82683 9.2388 0
      vertex 2.90285 9.5694 12
      vertex 3.82683 9.2388 12
    endloop
  endfacet
  facet normal 0.336885 0.941546 0
    outer loop
      vertex 2.90285 9.5694 12
      vertex 3.82683 9.2388 0
      vertex 2.90285 9.5694 0
    endloop
  endfacet
  facet normal 0.242979 0.970032 -0
    outer loop
      vertex 2.90285 9.5694 0
      vertex 1.9509 9.80785 12
      vertex 2.90285 9.5694 12
    endloop
  endfacet
  facet normal 0.242979 0.970032 0
    outer loop
      vertex 1.9509 9.80785 12
      vertex 2.90285 9.5694 0
      vertex 1.9509 9.80785 0
    endloop
  endfacet
  facet normal 0.146736 0.989176 -0
    outer loop
      vertex 1.9509 9.80785 0
      vertex 0.980171 9.95185 12
      vertex 1.9509 9.80785 12
    endloop
  endfacet
  facet normal 0.146736 0.989176 0
    outer loop
      vertex 0.980171 9.95185 12
      vertex 1.9509 9.80785 0
      vertex 0.980171 9.95185 0
    endloop
  endfacet
  facet normal 0.0490649 0.998796 -0
    outer loop
      vertex 0.980171 9.95185 0
      vertex 0 10 12
      vertex 0.980171 9.95185 12
    endloop
  endfacet
  facet normal 0.0490649 0.998796 0
    outer loop
      vertex 0 10 12
      vertex 0.980171 9.95185 0
      vertex 0 10 0
    endloop
  endfacet
  facet normal -0.0490649 0.998796 0
    outer loop
      vertex 0 10 0
      vertex -0.980171 9.95185 12
      vertex 0 10 12
    endloop
  endfacet
  facet normal -0.0490649 0.998796 0
    outer loop
      vertex -0.980171 9.95185 12
      vertex 0 10 0
      vertex -0.980171 9.95185 0
    endloop
  endfacet
  facet normal -0.146736 0.989176 0
    outer loop
      vertex -0.980171 9.95185 0
      vertex -1.9509 9.80785 12
      vertex -0.980171 9.95185 12
    endloop
  endfacet
  facet normal -0.146736 0.989176 0
    outer loop
      vertex -1.9509 9.80785 12
      vertex -0.980171 9.95185 0
      vertex -1.9509 9.80785 0
    endloop
  endfacet
  facet normal -0.242979 0.970032 0
    outer loop
      vertex -1.9509 9.80785 0
      vertex -2.90285 9.5694 12
      vertex -1.9509 9.80785 12
    endloop
  endfacet
  facet normal -0.242979 0.970032 0
    outer loop
      vertex -2.90285 9.5694 12
      vertex -1.9509 9.80785 0
      vertex -2.90285 9.5694 0
    endloop
  endfacet
  facet normal -0.336885 0.941546 0
    outer loop
      vertex -2.90285 9.5694 0
      vertex -3.82683 9.2388 12
      vertex -2.90285 9.5694 12
    endloop
  endfacet
  facet normal -0.336885 0.941546 0
    outer loop
      vertex -3.82683 9.2388 12
      vertex -2.90285 9.5694 0
      vertex -3.82683 9.2388 0
    endloop
  endfacet
  facet normal -0.427558 0.903988 0
    outer loop
      vertex -3.82683 9.2388 0
      vertex -4.71397 8.81921 12
      vertex -3.82683 9.2388 12
    endloop
  endfacet
  facet normal -0.427558 0.903988 0
    outer loop
      vertex -4.71397 8.81921 12
      vertex -3.82683 9.2388 0
      vertex -4.71397 8.81921 0
    endloop
  endfacet
  facet normal -0.5141 0.85773 0
    outer loop
      vertex -4.71397 8.81921 0
      vertex -5.5557 8.3147 12
      vertex -4.71397 8.81921 12
    endloop
  endfacet
  facet normal -0.5141 0.85773 0
    outer loop
      vertex -5.5557 8.3147 12
      vertex -4.71397 8.81921 0
      vertex -5.5557 8.3147 0
    endloop
  endfacet
  facet normal -0.595705 0.803203 0
    outer loop
      vertex -5.5557 8.3147 0
      vertex -6.34393 7.7301 12
      vertex -5.5557 8.3147 12
    endloop
  endfacet
  facet normal -0.595705 0.803203 0
    outer loop
      vertex -6.34393 7.7301 12
      vertex -5.5557 8.3147 0
      vertex -6.34393 7.7301 0
    endloop
  endfacet
  facet normal -0.671553 0.740957 0
    outer loop
      vertex -6.34393 7.7301 0
      vertex -7.07107 7.07107 12
      vertex -6.34393 7.7301 12
    endloop
  endfacet
  facet normal -0.671553 0.740957 0
    outer loop
      vertex -7.07107 7.07107 12
      vertex -6.34393 7.7301 0
      vertex -7.07107 7.07107 0
    endloop
  endfacet
  facet normal -0.740957 0.671553 0
    outer loop
      vertex -7.7301 6.34393 0
      vertex -7.07107 7.07107 12
      vertex -7.07107 7.07107 0
    endloop
  endfacet
  facet normal -0.740957 0.671553 0
    outer loop
      vertex -7.07107 7.07107 12
      vertex -7.7301 6.34393 0
      vertex -7.7301 6.34393 12
    endloop
  endfacet
  facet normal -0.803203 0.595705 0
    outer loop
      vertex -8.3147 5.5557 0
      vertex -7.7301 6.34393 12
      vertex -7.7301 6.34393 0
    endloop
  endfacet
  facet normal -0.803203 0.595705 0
    outer loop
      vertex -7.7301 6.34393 12
      vertex -8.3147 5.5557 0
      vertex -8.3147 5.5557 12
    endloop
  endfacet
  facet normal -0.85773 0.5141 0
    outer loop
      vertex -8.81921 4.71397 0
      vertex -8.3147 5.5557 12
      vertex -8.3147 5.5557 0
    endloop
  endfacet
  facet normal -0.85773 0.5141 0
    outer loop
      vertex -8.3147 5.5557 12
      vertex -8.81921 4.71397 0
      vertex -8.81921 4.71397 12
    endloop
  endfacet
  facet normal -0.903988 0.427558 0
    outer loop
      vertex -9.2388 3.82683 0
      vertex -8.81921 4.71397 12
      vertex -8.81921 4.71397 0
    endloop
  endfacet
  facet normal -0.903988 0.427558 0
    outer loop
      vertex -8.81921 4.71397 12
      vertex -9.2388 3.82683 0
      vertex -9.2388 3.82683 12
    endloop
  endfacet
  facet normal -0.941546 0.336885 0
    outer loop
      vertex -9.5694 2.90285 0
      vertex -9.2388 3.82683 12
      vertex -9.2388 3.82683 0
    endloop
  endfacet
  facet normal -0.941546 0.336885 0
    outer loop
      vertex -9.2388 3.82683 12
      vertex -9.5694 2.90285 0
      vertex -9.5694 2.90285 12
    endloop
  endfacet
  facet normal -0.970032 0.242979 0
    outer loop
      vertex -9.80785 1.9509 0
      vertex -9.5694 2.90285 12
      vertex -9.5694 2.90285 0
    endloop
  endfacet
  facet normal -0.970032 0.242979 0
    outer loop
      vertex -9.5694 2.90285 12
      vertex -9.80785 1.9509 0
      vertex -9.80785 1.9509 12
    endloop
  endfacet
  facet normal -0.989176 0.146736 0
    outer loop
      vertex -9.95185 0.980171 0
      vertex -9.80785 1.9509 12
      vertex -9.80785 1.9509 0
    endloop
  endfacet
  facet normal -0.989176 0.146736 0
    outer loop
      vertex -9.80785 1.9509 12
      vertex -9.95185 0.980171 0
      vertex -9.95185 0.980171 12
    endloop
  endfacet
  facet normal -0.998796 0.0490649 0
    outer loop
      vertex -10 -0 0
      vertex -9.95185 0.980171 12
      vertex -9.95185 0.980171 0
    endloop
  endfacet
  facet normal -0.998796 0.0490649 0
    outer loop
      vertex -9.95185 0.980171 12
      vertex -10 -0 0
      vertex -10 -0 12
    endloop
  endfacet
  facet normal -0.998796 -0.0490649 0
    outer loop
      vertex -9.95185 -0.980171 0
      vertex -10 -0 12
      vertex -10 -0 0
    endloop
  endfacet
  facet normal -0.998796 -0.0490649 0
    outer loop
      vertex -10 -0 12
      vertex -9.95185 -0.980171 0
      vertex -9.95185 -0.980171 12
    endloop
  endfacet
  facet normal -0.989176 -0.146736 0
    outer loop
      vertex -9.80785 -1.9509 0
      vertex -9.95185 -0.980171 12
      vertex -9.95185 -0.980171 0
    endloop
  endfacet
  facet normal -0.989176 -0.146736 0
    outer loop
      vertex -9.95185 -0.980171 12
      vertex -9.80785 -1.9509 0
      vertex -9.80785 -1.9509 12
    endloop
  endfacet
  facet normal -0.970032 -0.242979 0
    outer loop
      vertex -9.5694 -2.90285 0
      vertex -9.80785 -1.9509 12
      vertex -9.80785 -1.9509 0
    endloop
  endfacet
  facet normal -0.970032 -0.242979 0
    outer loop
      vertex -9.80785 -1.9509 12
      vertex -9.5694 -2.90285 0
      vertex -9.5694 -2.90285 12
    endloop
  endfacet
  facet normal -0.941546 -0.336885 0
    outer loop
      vertex -9.2388 -3.82683 0
      vertex -9.5694 -2.90285 12
      vertex -9.5694 -2.90285 0
    endloop
  endfacet
  facet normal -0.941546 -0.336885 0
    outer loop
      vertex -9.5694 -2.90285 12
      vertex -9.2388 -3.82683 0
      vertex -9.2388 -3.82683 12
    endloop
  endfacet
  facet normal -0.903988 -0.427558 0
    outer loop
      vertex -8.81921 -4.71397 0
      vertex -9.2388 -3.82683 12
      vertex -9.2388 -3.82683 0
    endloop
  endfacet
  facet normal -0.903988 -0.427558 0
    outer loop
      vertex -9.2388 -3.82683 12
      vertex -8.81921 -4.71397 0
      vertex -8.81921 -4.71397 12
    endloop
  endfacet
  facet normal -0.85773 -0.5141 0
    outer loop
      vertex -8.3147 -5.5557 0
      vertex -8.81921 -4.71397 12
      vertex -8.81921 -4.71397 0
    endloop
  endfacet
  facet normal -0.85773 -0.5141 0
    outer loop
      vertex -8.81921 -4.71397 12
      vertex -8.3147 -5.5557 0
      vertex -8.3147 -5.5557 12
    endloop
  endfacet
  facet normal -0.803203 -0.595705 0
    outer loop
      vertex -7.7301 -6.34393 0
      vertex -8.3147 -5.5557 12
      vertex -8.3147 -5.5557 0
    endloop
  endfacet
  facet normal -0.803203 -0.595705 0
    outer loop
      vertex -8.3147 -5.5557 12
      vertex -7.7301 -6.34393 0
      vertex -7.7301 -6.34393 12
    endloop
  endfacet
  facet normal -0.740957 -0.671553 0
    outer loop
      vertex -7.07107 -7.07107 0
      vertex -7.7301 -6.34393 12
      vertex -7.7301 -6.34393 0
    endloop
  endfacet
  facet normal -0.740957 -0.671553 0
    outer loop
      vertex -7.7301 -6.34393 12
      vertex -7.07107 -7.07107 0
      vertex -7.07107 -7.07107 12
    endloop
  endfacet
  facet normal -0.671553 -0.740957 0
    outer loop
      vertex -7.07107 -7.07107 0
      vertex -6.34393 -7.7301 12
      vertex -7.07107 -7.07107 12
    endloop
  endfacet
  facet normal -0.671553 -0.740957 -0
    outer loop
      vertex -6.34393 -7.7301 12
      vertex -7.07107 -7.07107 0
      vertex -6.34393 -7.7301 0
    endloop
  endfacet
  facet normal -0.595705 -0.803203 0
    outer loop
      vertex -6.34393 -7.7301 0
      vertex -5.5557 -8.3147 12
      vertex -6.34393 -7.7301 12
    endloop
  endfacet
  facet normal -0.595705 -0.803203 -0
    outer loop
      vertex -5.5557 -8.3147 12
      vertex -6.34393 -7.7301 0
      vertex -5.5557 -8.3147 0
    endloop
  endfacet
  facet normal -0.5141 -0.85773 0
    outer loop
      vertex -5.5557 -8.3147 0
      vertex -4.71397 -8.81921 12
      vertex -5.5557 -8.3147 12
    endloop
  endfacet
  facet normal -0.5141 -0.85773 -0
    outer loop
      vertex -4.71397 -8.81921 12
      vertex -5.5557 -8.3147 0
      vertex -4.71397 -8.81921 0
    endloop
  endfacet
  facet normal -0.427558 -0.903988 0
    outer loop
      vertex -4.71397 -8.81921 0
      vertex -3.82683 -9.2388 12
      vertex -4.71397 -8.81921 12
    endloop
  endfacet
  facet normal -0.427558 -0.903988 -0
    outer loop
      vertex -3.82683 -9.2388 12
      vertex -4.71397 -8.81921 0
      vertex -3.82683 -9.2388 0
    endloop
  endfacet
  facet normal -0.336885 -0.941546 0
    outer loop
      vertex -3.82683 -9.2388 0
      vertex -2.90285 -9.5694 12
      vertex -3.82683 -9.2388 12
    endloop
  endfacet
  facet normal -0.336885 -0.941546 -0
    outer loop
      vertex -2.90285 -9.5694 12
      vertex -3.82683 -9.2388 0
      vertex -2.90285 -9.5694 0
    endloop
  endfacet
  facet normal -0.242979 -0.970032 0
    outer loop
      vertex -2.90285 -9.5694 0
      vertex -1.9509 -9.80785 12
      vertex -2.90285 -9.5694 12
    endloop
  endfacet
  facet normal -0.242979 -0.970032 -0
    outer loop
      vertex -1.9509 -9.80785 12
      vertex -2.90285 -9.5694 0
      vertex -1.9509 -9.80785 0
    endloop
  endfacet
  facet normal -0.146736 -0.989176 0
    outer loop
      vertex -1.9509 -9.80785 0
      vertex -0.980171 -9.95185 12
      vertex -1.9509 -9.80785 12
    endloop
  endfacet
  facet normal -0.146736 -0.989176 -0
    outer loop
      vertex -0.980171 -9.95185 12
      vertex -1.9509 -9.80785 0
      vertex -0.980171 -9.95185 0
    endloop
  endfacet
  facet normal -0.0490649 -0.998796 0
    outer loop
      vertex -0.980171 -9.95185 0
      vertex -0 -10 12
      vertex -0.980171 -9.95185 12
    endloop
  endfacet
  facet normal -0.0490649 -0.998796 -0
    outer loop
      vertex -0 -10 12
      vertex -0.980171 -9.95185 0
      vertex -0 -10 0
    endloop
  endfacet
  facet normal 0.0490649 -0.998796 0
    outer loop
      vertex -0 -10 0
      vertex 0.980171 -9.95185 12
      vertex -0 -10 12
    endloop
  endfacet
  facet normal 0.0490649 -0.998796 0
    outer loop
      vertex 0.980171 -9.95185 12
      vertex -0 -10 0
      vertex 0.980171 -9.95185 0
    endloop
  endfacet
  facet normal 0.146736 -0.989176 0
    outer loop
      vertex 0.980171 -9.95185 0
      vertex 1.9509 -9.80785 12
      vertex 0.980171 -9.95185 12
    endloop
  endfacet
  facet normal 0.146736 -0.989176 0
    outer loop
      vertex 1.9509 -9.80785 12
      vertex 0.980171 -9.95185 0
      vertex 1.9509 -9.80785 0
    endloop
  endfacet
  facet normal 0.242979 -0.970032 0
    outer loop
      vertex 1.9509 -9.80785 0
      vertex 2.90285 -9.5694 12
      vertex 1.9509 -9.80785 12
    endloop
  endfacet
  facet normal 0.242979 -0.970032 0
    outer loop
      vertex 2.90285 -9.5694 12
      vertex 1.9509 -9.80785 0
      vertex 2.90285 -9.5694 0
    endloop
  endfacet
  facet normal 0.336885 -0.941546 0
    outer loop
      vertex 2.90285 -9.5694 0
      vertex 3.82683 -9.2388 12
      vertex 2.90285 -9.5694 12
    endloop
  endfacet
  facet normal 0.336885 -0.941546 0
    outer loop
      vertex 3.82683 -9.2388 12
      vertex 2.90285 -9.5694 0
      vertex 3.82683 -9.2388 0
    endloop
  endfacet
  facet normal 0.427558 -0.903988 0
    outer loop
      vertex 3.82683 -9.2388 0
      vertex 4.71397 -8.81921 12
      vertex 3.82683 -9.2388 12
    endloop
  endfacet
  facet normal 0.427558 -0.903988 0
    outer loop
      vertex 4.71397 -8.81921 12
      vertex 3.82683 -9.2388 0
      vertex 4.71397 -8.81921 0
    endloop
  endfacet
  facet normal 0.5141 -0.85773 0
    outer loop
      vertex 4.71397 -8.81921 0
      vertex 5.5557 -8.3147 12
      vertex 4.71397 -8.81921 12
    endloop
  endfacet
  facet normal 0.5141 -0.85773 0
    outer loop
      vertex 5.5557 -8.3147 12
      vertex 4.71397 -8.81921 0
      vertex 5.5557 -8.3147 0
    endloop
  endfacet
  facet normal 0.595705 -0.803203 0
    outer loop
      vertex 5.5557 -8.3147 0
      vertex 6.34393 -7.7301 12
      vertex 5.5557 -8.3147 12
    endloop
  endfacet
  facet normal 0.595705 -0.803203 0
    outer loop
      vertex 6.34393 -7.7301 12
      vertex 5.5557 -8.3147 0
      vertex 6.34393 -7.7301 0
    endloop
  endfacet
  facet normal 0.671553 -0.740957 0
    outer loop
      vertex 6.34393 -7.7301 0
      vertex 7.07107 -7.07107 12
      vertex 6.34393 -7.7301 12
    endloop
  endfacet
  facet normal 0.671553 -0.740957 0
    outer loop
      vertex 7.07107 -7.07107 12
      vertex 6.34393 -7.7301 0
      vertex 7.07107 -7.07107 0
    endloop
  endfacet
  facet normal 0.740957 -0.671553 0
    outer loop
      vertex 7.07107 -7.07107 12
      vertex 7.7301 -6.34393 0
      vertex 7.7301 -6.34393 12
    endloop
  endfacet
  facet normal 0.740957 -0.671553 0
    outer loop
      vertex 7.7301 -6.34393 0
      vertex 7.07107 -7.07107 12
      vertex 7.07107 -7.07107 0
    endloop
  endfacet
  facet normal 0.803203 -0.595705 0
    outer loop
      vertex 7.7301 -6.34393 12
      vertex 8.3147 -5.5557 0
      vertex 8.3147 -5.5557 12
    endloop
  endfacet
  facet normal 0.803203 -0.595705 0
    outer loop
      vertex 8.3147 -5.5557 0
      vertex 7.7301 -6.34393 12
      vertex 7.7301 -6.34393 0
    endloop
  endfacet
  facet normal 0.85773 -0.5141 0
    outer loop
      vertex 8.3147 -5.5557 12
      vertex 8.81921 -4.71397 0
      vertex 8.81921 -4.71397 12
    endloop
  endfacet
  facet normal 0.85773 -0.5141 0
    outer loop
      vertex 8.81921 -4.71397 0
      vertex 8.3147 -5.5557 12
      vertex 8.3147 -5.5557 0
    endloop
  endfacet
  facet normal 0.903988 -0.427558 0
    outer loop
      vertex 8.81921 -4.71397 12
      vertex 9.2388 -3.82683 0
      vertex 9.2388 -3.82683 12
    endloop
  endfacet
  facet normal 0.903988 -0.427558 0
    outer loop
      vertex 9.2388 -3.82683 0
      vertex 8.81921 -4.71397 12
      vertex 8.81921 -4.71397 0
    endloop
  endfacet
  facet normal 0.941546 -0.336885 0
    outer loop
      vertex 9.2388 -3.82683 12
      vertex 9.5694 -2.90285 0
      vertex 9.5694 -2.90285 12
    endloop
  endfacet
  facet normal 0.941546 -0.336885 0
    outer loop
      vertex 9.5694 -2.90285 0
      vertex 9.2388 -3.82683 12
      vertex 9.2388 -3.82683 0
    endloop
  endfacet
  facet normal 0.970032 -0.242979 0
    outer loop
      vertex 9.5694 -2.90285 12
      vertex 9.80785 -1.9509 0
      vertex 9.80785 -1.9509 12
    endloop
  endfacet
  facet normal 0.970032 -0.242979 0
    outer loop
      vertex 9.80785 -1.9509 0
      vertex 9.5694 -2.90285 12
      vertex 9.5694 -2.90285 0
    endloop
  endfacet
  facet normal 0.989176 -0.146736 0
    outer loop
      vertex 9.80785 -1.9509 12
      vertex 9.95185 -0.980171 0
      vertex 9.95185 -0.980171 12
    endloop
  endfacet
  facet normal 0.989176 -0.146736 0
    outer loop
      vertex 9.95185 -0.980171 0
      vertex 9.80785 -1.9509 12
      vertex 9.80785 -1.9509 0
    endloop
  endfacet
  facet normal 0.998796 -0.0490649 0
    outer loop
      vertex 9.95185 -0.980171 12
      vertex 10 0 0
      vertex 10 0 12
    endloop
  endfacet
  facet normal 0.998796 -0.0490649 0
    outer loop
      vertex 10 0 0
      vertex 9.95185 -0.980171 12
      vertex 9.95185 -0.980171 0
    endloop
  endfacet
  facet normal 0 0 -1
    outer loop
      vertex 9.95185 -0.980171 0
      vertex 9.95185 0.980171 0
      vertex 10 0 0
    endloop
  endfacet
  facet normal 0 0 -1
    outer loop
      vertex 9.80785 -1.9509 0
      vertex 9.95185 0.980171 0
      vertex 9.95185 -0.980171 0
    endloop
  endfacet
  facet normal 0 0 -1
    outer loop
      vertex 9.80785 -1.9509 0
      vertex 9.80785 1.9509 0
      vertex 9.95185 0.980171 0
    endloop
  endfacet
  facet normal 0 0 -1
    outer loop
      vertex 9.5694 -2.90285 0
      vertex 9.80785 1.9509 0
      vertex 9.80785 -1.9509 0
    endloop
  endfacet
  facet normal 0 0 -1
    outer loop
      vertex 9.5694 -2.90285 0
      vertex 9.5694 2.90285 0
      vertex 9.80785 1.9509 0
    endloop
  endfacet
  facet normal 0 0 -1
    outer loop
      vertex 9.2388 -3.82683 0
      vertex 9.5694 2.90285 0
      vertex 9.5694 -2.90285 0
    endloop
  endfacet
  facet normal 0 0 -1
    outer loop
      vertex 9.2388 -3.82683 0
      vertex 9.2388 3.82683 0
      vertex 9.5694 2.90285 0
    endloop
  endfacet
  facet normal 0 0 -1
    outer loop
      vertex 8.81921 -4.71397 0
      vertex 9.2388 3.82683 0
      vertex 9.2388 -3.82683 0
    endloop
  endfacet
  facet normal 0 0 -1
    outer loop
      vertex 8.81921 -4.71397 0
      vertex 8.81921 4.71397 0
      vertex 9.2388 3.82683 0
    endloop
  endfacet
  facet normal 0 0 -1
    outer loop
      vertex 8.3147 -5.5557 0
      vertex 8.81921 4.71397 0
      vertex 8.81921 -4.71397 0
    endloop
  endfacet
  facet normal 0 0 -1
    outer loop
      vertex 8.3147 -5.5557 0
      vertex 8.3147 5.5557 0
      vertex 8.81921 4.71397 0
    endloop
  endfacet
  facet normal 0 0 -1
    outer loop
      vertex 7.7301 -6.34393 0
      vertex 8.3147 5.5557 0
      vertex 8.3147 -5.5557 0
    endloop
  endfacet
  facet normal 0 0 -1
    outer loop
      vertex 7.7301 -6.34393 0
      vertex 7.7301 6.34393 0
      vertex 8.3147 5.5557 0
    endloop
  endfacet
  facet normal 0 0 -1
    outer loop
      vertex 7.07107 -7.07107 0
      vertex 7.7301 6.34393 0
      vertex 7.7301 -6.34393 0
    endloop
  endfacet
  facet normal 0 0 -1
    outer loop
      vertex 7.07107 -7.07107 0
      vertex 7.07107 7.07107 0
      vertex 7.7301 6.34393 0
    endloop
  endfacet
  facet normal 0 0 -1
    outer loop
      vertex 6.34393 -7.7301 0
      vertex 7.07107 7.07107 0
      vertex 7.07107 -7.07107 0
    endloop
  endfacet
  facet normal 0 0 -1
    outer loop
      vertex 6.34393 -7.7301 0
      vertex 6.34393 7.7301 0
      vertex 7.07107 7.07107 0
    endloop
  endfacet
  facet normal 0 0 -1
    outer loop
      vertex 5.5557 -8.3147 0
      vertex 6.34393 7.7301 0
      vertex 6.34393 -7.7301 0
    endloop
  endfacet
  facet normal 0 0 -1
    outer loop
      vertex 5.5557 -8.3147 0
      vertex 5.5557 8.3147 0
      vertex 6.34393 7.7301 0
    endloop
  endfacet
  facet normal 0 0 -1
    outer loop
      vertex 4.71397 -8.81921 0
      vertex 5.5557 8.3147 0
      vertex 5.5557 -8.3147 0
    endloop
  endfacet
  facet normal 0 0 -1
    outer loop
      vertex 4.71397 -8.81921 0
      vertex 4.71397 8.81921 0
      vertex 5.5557 8.3147 0
    endloop
  endfacet
  facet normal 0 0 -1
    outer loop
      vertex 3.82683 -9.2388 0
      vertex 4.71397 8.81921 0
      vertex 4.71397 -8.81921 0
    endloop
  endfacet
  facet normal 0 0 -1
    outer loop
      vertex 3.82683 -9.2388 0
      vertex 3.82683 9.2388 0
      vertex 4.71397 8.81921 0
    endloop
  endfacet
  facet normal 0 0 -1
    outer loop
      vertex 2.90285 -9.5694 0
      vertex 3.82683 9.2388 0
      vertex 3.82683 -9.2388 0
    endloop
  endfacet
  facet normal 0 0 -1
    outer loop
      vertex 2.90285 -9.5694 0
      vertex 2.90285 9.5694 0
      vertex 3.82683 9.2388 0
    endloop
  endfacet
  facet normal 0 0 -1
    outer loop
      vertex 1.9509 -9.80785 0
      vertex 2.90285 9.5694 0
      vertex 2.90285 -9.5694 0
    endloop
  endfacet
  facet normal 0 0 -1
    outer loop
      vertex 1.9509 -9.80785 0
      vertex 1.9509 9.80785 0
      vertex 2.90285 9.5694 0
    endloop
  endfacet
  facet normal 0 0 -1
    outer loop
      vertex 0.980171 -9.95185 0
      vertex 1.9509 9.80785 0
      vertex 1.9509 -9.80785 0
    endloop
  endfacet
  facet normal 0 0 -1
    outer loop
      vertex 0.980171 -9.95185 0
      vertex 0.980171 9.95185 0
      vertex 1.9509 9.80785 0
    endloop
  endfacet
  facet normal 0 0 -1
    outer loop
      vertex -0 -10 0
      vertex 0.980171 9.95185 0
      vertex 0.980171 -9.95185 0
    endloop
  endfacet
  facet normal 0 0 -1
    outer loop
      vertex -0 -10 0
      vertex 0 10 0
      vertex 0.980171 9.95185 0
    endloop
  endfacet
  facet normal 0 0 -1
    outer loop
      vertex -0.980171 -9.95185 0
      vertex 0 10 0
      vertex -0 -10 0
    endloop
  endfacet
  facet normal 0 0 -1
    outer loop
      vertex -0.980171 -9.95185 0
      vertex -0.980171 9.95185 0
      vertex 0 10 0
    endloop
  endfacet
  facet normal 0 0 -1
    outer loop
      vertex -1.9509 -9.80785 0
      vertex -0.980171 9.95185 0
      vertex -0.980171 -9.95185 0
    endloop
  endfacet
  facet normal 0 0 -1
    outer loop
      vertex -1.9509 -9.80785 0
      vertex -1.9509 9.80785 0
      vertex -0.980171 9.95185 0
    endloop
  endfacet
  facet normal 0 0 -1
    outer loop
      vertex -2.90285 -9.5694 0
      vertex -1.9509 9.80785 0
      vertex -1.9509 -9.80785 0
    endloop
  endfacet
  facet normal 0 0 -1
    outer loop
      vertex -2.90285 -9.5694 0
      vertex -2.90285 9.5694 0
      vertex -1.9509 9.80785 0
    endloop
  endfacet
  facet normal 0 0 -1
    outer loop
      vertex -3.82683 -9.2388 0
      vertex -2.90285 9.5694 0
      vertex -2.90285 -9.5694 0
    endloop
  endfacet
  facet normal 0 0 -1
    outer loop
      vertex -3.82683 -9.2388 0
      vertex -3.82683 9.2388 0
      vertex -2.90285 9.5694 0
    endloop
  endfacet
  facet normal 0 0 -1
    outer loop
      vertex -4.71397 -8.81921 0
      vertex -3.82683 9.2388 0
      vertex -3.82683 -9.2388 0
    endloop
  endfacet
  facet normal 0 0 -1
    outer loop
      vertex -4.71397 -8.81921 0
      vertex -4.71397 8.81921 0
      vertex -3.82683 9.2388 0
    endloop
  endfacet
  facet normal 0 0 -1
    outer loop
      vertex -5.5557 -8.3147 0
      vertex -4.71397 8.81921 0
      vertex -4.71397 -8.81921 0
    endloop
  endfacet
  facet normal 0 0 -1
    outer loop
      vertex -5.5557 -8.3147 0
      vertex -5.5557 8.3147 0
      vertex -4.71397 8.81921 0
    endloop
  endfacet
  facet normal 0 0 -1
    outer loop
      vertex -6.34393 -7.7301 0
      vertex -5.5557 8.3147 0
      vertex -5.5557 -8.3147 0
    endloop
  endfacet
  facet normal 0 0 -1
    outer loop
      vertex -6.34393 -7.7301 0
      vertex -6.34393 7.7301 0
      vertex -5.5557 8.3147 0
    endloop
  endfacet
  facet normal 0 0 -1
    outer loop
      vertex -7.07107 -7.07107 0
      vertex -6.34393 7.7301 0
      vertex -6.34393 -7.7301 0
    endloop
  endfacet
  facet normal 0 0 -1
    outer loop
      vertex -7.07107 -7.07107 0
      vertex -7.07107 7.07107 0
      vertex -6.34393 7.7301 0
    endloop
  endfacet
  facet normal 0 0 -1
    outer loop
      vertex -7.7301 -6.34393 0
      vertex -7.07107 7.07107 0
      vertex -7.07107 -7.07107 0
    endloop
  endfacet
  facet normal 0 0 -1
    outer loop
      vertex -7.7301 -6.34393 0
      vertex -7.7301 6.34393 0
      vertex -7.07107 7.07107 0
    endloop
  endfacet
  facet normal 0 0 -1
    outer loop
      vertex -8.3147 -5.5557 0
      vertex -7.7301 6.34393 0
      vertex -7.7301 -6.34393 0
    endloop
  endfacet
  facet normal 0 0 -1
    outer loop
      vertex -8.3147 -5.5557 0
      vertex -8.3147 5.5557 0
      vertex -7.7301 6.34393 0
    endloop
  endfacet
  facet normal 0 0 -1
    outer loop
      vertex -8.81921 -4.71397 0
      vertex -8.3147 5.5557 0
      vertex -8.3147 -5.5557 0
    endloop
  endfacet
  facet normal 0 0 -1
    outer loop
      vertex -8.81921 -4.71397 0
      vertex -8.81921 4.71397 0
      vertex -8.3147 5.5557 0
    endloop
  endfacet
  facet normal 0 0 -1
    outer loop
      vertex -9.2388 -3.82683 0
      vertex -8.81921 4.71397 0
      vertex -8.81921 -4.71397 0
    endloop
  endfacet
  facet normal 0 0 -1
    outer loop
      vertex -9.2388 -3.82683 0
      vertex -9.2388 3.82683 0
      vertex -8.81921 4.71397 0
    endloop
  endfacet
  facet normal 0 0 -1
    outer loop
      vertex -9.5694 -2.90285 0
      vertex -9.2388 3.82683 0
      vertex -9.2388 -3.82683 0
    endloop
  endfacet
  facet normal 0 0 -1
    outer loop
      vertex -9.5694 -2.90285 0
      vertex -9.5694 2.90285 0
      vertex -9.2388 3.82683 0
    endloop
  endfacet
  facet normal 0 0 -1
    outer loop
      vertex -9.80785 -1.9509 0
      vertex -9.5694 2.90285 0
      vertex -9.5694 -2.90285 0
    endloop
  endfacet
  facet normal 0 0 -1
    outer loop
      vertex -9.80785 -1.9509 0
      vertex -9.80785 1.9509 0
      vertex -9.5694 2.90285 0
    endloop
  endfacet
  facet normal 0 0 -1
    outer loop
      vertex -9.95185 -0.980171 0
      vertex -9.80785 1.9509 0
      vertex -9.80785 -1.9509 0
    endloop
  endfacet
  facet normal 0 0 -1
    outer loop
      vertex -9.95185 -0.980171 0
      vertex -9.95185 0.980171 0
      vertex -9.80785 1.9509 0
    endloop
  endfacet
  facet normal 0 -0 -1
    outer loop
      vertex -9.95185 0.980171 0
      vertex -9.95185 -0.980171 0
      vertex -10 -0 0
    endloop
  endfacet
  facet normal 0 0 1
    outer loop
      vertex 9.95185 0.980171 12
      vertex 9.95185 -0.980171 12
      vertex 10 0 12
    endloop
  endfacet
  facet normal 0 0 1
    outer loop
      vertex 9.80785 1.9509 12
      vertex 9.95185 -0.980171 12
      vertex 9.95185 0.980171 12
    endloop
  endfacet
  facet normal 0 0 1
    outer loop
      vertex 9.80785 1.9509 12
      vertex 9.80785 -1.9509 12
      vertex 9.95185 -0.980171 12
    endloop
  endfacet
  facet normal 0 0 1
    outer loop
      vertex 9.5694 2.90285 12
      vertex 9.80785 -1.9509 12
      vertex 9.80785 1.9509 12
    endloop
  endfacet
  facet normal 0 0 1
    outer loop
      vertex 9.5694 2.90285 12
      vertex 9.5694 -2.90285 12
      vertex 9.80785 -1.9509 12
    endloop
  endfacet
  facet normal 0 0 1
    outer loop
      vertex 9.2388 3.82683 12
      vertex 9.5694 -2.90285 12
      vertex 9.5694 2.90285 12
    endloop
  endfacet
  facet normal 0 0 1
    outer loop
      vertex 9.2388 3.82683 12
      vertex 9.2388 -3.82683 12
      vertex 9.5694 -2.90285 12
    endloop
  endfacet
  facet normal 0 0 1
    outer loop
      vertex 8.81921 4.71397 12
      vertex 9.2388 -3.82683 12
      vertex 9.2388 3.82683 12
    endloop
  endfacet
  facet normal 0 0 1
    outer loop
      vertex 8.81921 4.71397 12
      vertex 8.81921 -4.71397 12
      vertex 9.2388 -3.82683 12
    endloop
  endfacet
  facet normal 0 0 1
    outer loop
      vertex 8.3147 5.5557 12
      vertex 8.81921 -4.71397 12
      vertex 8.81921 4.71397 12
    endloop
  endfacet
  facet normal 0 0 1
    outer loop
      vertex 8.3147 5.5557 12
      vertex 8.3147 -5.5557 12
      vertex 8.81921 -4.71397 12
    endloop
  endfacet
  facet normal 0 0 1
    outer loop
      vertex 7.7301 6.34393 12
      vertex 8.3147 -5.5557 12
      vertex 8.3147 5.5557 12
    endloop
  endfacet
  facet normal 0 0 1
    outer loop
      vertex 7.7301 6.34393 12
      vertex 7.7301 -6.34393 12
      vertex 8.3147 -5.5557 12
    endloop
  endfacet
  facet normal 0 0 1
    outer loop
      vertex 7.07107 7.07107 12
      vertex 7.7301 -6.34393 12
      vertex 7.7301 6.34393 12
    endloop
  endfacet
  facet normal 0 0 1
    outer loop
      vertex 7.07107 7.07107 12
      vertex 7.07107 -7.07107 12
      vertex 7.7301 -6.34393 12
    endloop
  endfacet
  facet normal 0 0 1
    outer loop
      vertex 6.34393 7.7301 12
      vertex 7.07107 -7.07107 12
      vertex 7.07107 7.07107 12
    endloop
  endfacet
  facet normal 0 0 1
    outer loop
      vertex 6.34393 7.7301 12
      vertex 6.34393 -7.7301 12
      vertex 7.07107 -7.07107 12
    endloop
  endfacet
  facet normal 0 0 1
    outer loop
      vertex 5.5557 8.3147 12
      vertex 6.34393 -7.7301 12
      vertex 6.34393 7.7301 12
    endloop
  endfacet
  facet normal 0 0 1
    outer loop
      vertex 5.5557 8.3147 12
      vertex 5.5557 -8.3147 12
      vertex 6.34393 -7.7301 12
    endloop
  endfacet
  facet normal 0 0 1
    outer loop
      vertex 4.71397 8.81921 12
      vertex 5.5557 -8.3147 12
      vertex 5.5557 8.3147 12
    endloop
  endfacet
  facet normal 0 0 1
    outer loop
      vertex 4.71397 8.81921 12
      vertex 4.71397 -8.81921 12
      vertex 5.5557 -8.3147 12
    endloop
  endfacet
  facet normal 0 0 1
    outer loop
      vertex 3.82683 9.2388 12
      vertex 4.71397 -8.81921 12
      vertex 4.71397 8.81921 12
    endloop
  endfacet
  facet normal 0 0 1
    outer loop
      vertex 3.82683 9.2388 12
      vertex 3.82683 -9.2388 12
      vertex 4.71397 -8.81921 12
    endloop
  endfacet
  facet normal 0 0 1
    outer loop
      vertex 2.90285 9.5694 12
      vertex 3.82683 -9.2388 12
      vertex 3.82683 9.2388 12
    endloop
  endfacet
  facet normal 0 0 1
    outer loop
      vertex 2.90285 9.5694 12
      vertex 2.90285 -9.5694 12
      vertex 3.82683 -9.2388 12
    endloop
  endfacet
  facet normal 0 0 1
    outer loop
      vertex 1.9509 9.80785 12
      vertex 2.90285 -9.5694 12
      vertex 2.90285 9.5694 12
    endloop
  endfacet
  facet normal 0 0 1
    outer loop
      vertex 1.9509 9.80785 12
      vertex 1.9509 -9.80785 12
      vertex 2.90285 -9.5694 12
    endloop
  endfacet
  facet normal 0 0 1
    outer loop
      vertex 0.980171 9.95185 12
      vertex 1.9509 -9.80785 12
      vertex 1.9509 9.80785 12
    endloop
  endfacet
  facet normal 0 0 1
    outer loop
      vertex 0.980171 9.95185 12
      vertex 0.980171 -9.95185 12
      vertex 1.9509 -9.80785 12
    endloop
  endfacet
  facet normal 0 0 1
    outer loop
      vertex 0 10 12
      vertex 0.980171 -9.95185 12
      vertex 0.980171 9.95185 12
    endloop
  endfacet
  facet normal 0 0 1
    outer loop
      vertex 0 10 12
      vertex -0 -10 12
      vertex 0.980171 -9.95185 12
    endloop
  endfacet
  facet normal -0 0 1
    outer loop
      vertex -0.980171 9.95185 12
      vertex -0 -10 12
      vertex 0 10 12
    endloop
  endfacet
  facet normal 0 0 1
    outer loop
      vertex -0.980171 9.95185 12
      vertex -0.980171 -9.95185 12
      vertex -0 -10 12
    endloop
  endfacet
  facet normal -0 0 1
    outer loop
      vertex -1.9509 9.80785 12
      vertex -0.980171 -9.95185 12
      vertex -0.980171 9.95185 12
    endloop
  endfacet
  facet normal 0 0 1
    outer loop
      vertex -1.9509 9.80785 12
      vertex -1.9509 -9.80785 12
      vertex -0.980171 -9.95185 12
    endloop
  endfacet
  facet normal -0 0 1
    outer loop
      vertex -2.90285 9.5694 12
      vertex -1.9509 -9.80785 12
      vertex -1.9509 9.80785 12
    endloop
  endfacet
  facet normal 0 0 1
    outer loop
      vertex -2.90285 9.5694 12
      vertex -2.90285 -9.5694 12
      vertex -1.9509 -9.80785 12
    endloop
  endfacet
  facet normal -0 0 1
    outer loop
      vertex -3.82683 9.2388 12
      vertex -2.90285 -9.5694 12
      vertex -2.90285 9.5694 12
    endloop
  endfacet
  facet normal 0 0 1
    outer loop
      vertex -3.82683 9.2388 12
      vertex -3.82683 -9.2388 12
      vertex -2.90285 -9.5694 12
    endloop
  endfacet
  facet normal -0 0 1
    outer loop
      vertex -4.71397 8.81921 12
      vertex -3.82683 -9.2388 12
      vertex -3.82683 9.2388 12
    endloop
  endfacet
  facet normal 0 0 1
    outer loop
      vertex -4.71397 8.81921 12
      vertex -4.71397 -8.81921 12
      vertex -3.82683 -9.2388 12
    endloop
  endfacet
  facet normal -0 0 1
    outer loop
      vertex -5.5557 8.3147 12
      vertex -4.71397 -8.81921 12
      vertex -4.71397 8.81921 12
    endloop
  endfacet
  facet normal 0 0 1
    outer loop
      vertex -5.5557 8.3147 12
      vertex -5.5557 -8.3147 12
      vertex -4.71397 -8.81921 12
    endloop
  endfacet
  facet normal -0 0 1
    outer loop
      vertex -6.34393 7.7301 12
      vertex -5.5557 -8.3147 12
      vertex -5.5557 8.3147 12
    endloop
  endfacet
  facet normal 0 0 1
    outer loop
      vertex -6.34393 7.7301 12
      vertex -6.34393 -7.7301 12
      vertex -5.5557 -8.3147 12
    endloop
  endfacet
  facet normal -0 0 1
    outer loop
      vertex -7.07107 7.07107 12
      vertex -6.34393 -7.7301 12
      vertex -6.34393 7.7301 12
    endloop
  endfacet
  facet normal 0 0 1
    outer loop
      vertex -7.07107 7.07107 12
      vertex -7.07107 -7.07107 12
      vertex -6.34393 -7.7301 12
    endloop
  endfacet
  facet normal -0 0 1
    outer loop
      vertex -7.7301 6.34393 12
      vertex -7.07107 -7.07107 12
      vertex -7.07107 7.07107 12
    endloop
  endfacet
  facet normal 0 0 1
    outer loop
      vertex -7.7301 6.34393 12
      vertex -7.7301 -6.34393 12
      vertex -7.07107 -7.07107 12
    endloop
  endfacet
  facet normal -0 0 1
    outer loop
      vertex -8.3147 5.5557 12
      vertex -7.7301 -6.34393 12
      vertex -7.7301 6.34393 12
    endloop
  endfacet
  facet normal 0 0 1
    outer loop
      vertex -8.3147 5.5557 12
      vertex -8.3147 -5.5557 12
      vertex -7.7301 -6.34393 12
    endloop
  endfacet
  facet normal -0 0 1
    outer loop
      vertex -8.81921 4.71397 12
      vertex -8.3147 -5.5557 12
      vertex -8.3147 5.5557 12
    endloop
  endfacet
  facet normal 0 0 1
    outer loop
      vertex -8.81921 4.71397 12
      vertex -8.81921 -4.71397 12
      vertex -8.3147 -5.5557 12
    endloop
  endfacet
  facet normal -0 0 1
    outer loop
      vertex -9.2388 3.82683 12
      vertex -8.81921 -4.71397 12
      vertex -8.81921 4.71397 12
    endloop
  endfacet
  facet normal 0 0 1
    outer loop
      vertex -9.2388 3.82683 12
      vertex -9.2388 -3.82683 12
      vertex -8.81921 -4.71397 12
    endloop
  endfacet
  facet normal -0 0 1
    outer loop
      vertex -9.5694 2.90285 12
      vertex -9.2388 -3.82683 12
      vertex -9.2388 3.82683 12
    endloop
  endfacet
  facet normal 0 0 1
    outer loop
      vertex -9.5694 2.90285 12
      vertex -9.5694 -2.90285 12
      vertex -9.2388 -3.82683 12
    endloop
  endfacet
  facet normal -0 0 1
    outer loop
      vertex -9.80785 1.9509 12
      vertex -9.5694 -2.90285 12
      vertex -9.5694 2.90285 12
    endloop
  endfacet
  facet normal 0 0 1
    outer loop
      vertex -9.80785 1.9509 12
      vertex -9.80785 -1.9509 12
      vertex -9.5694 -2.90285 12
    endloop
  endfacet
  facet normal -0 0 1
    outer loop
      vertex -9.95185 0.980171 12
      vertex -9.80785 -1.9509 12
      vertex -9.80785 1.9509 12
    endloop
  endfacet
  facet normal 0 0 1
    outer loop
      vertex -9.95185 0.980171 12
      vertex -9.95185 -0.980171 12
      vertex -9.80785 -1.9509 12
    endloop
  endfacet
  facet normal 0 -0 1
    outer loop
      vertex -9.95185 -0.980171 12
      vertex -9.95185 0.980171 12
      vertex -10 -0 12
    endloop
  endfacet
endsolid OpenSCAD_Model
